G75*
%MOIN*%
%OFA0B0*%
%FSLAX24Y24*%
%IPPOS*%
%LPD*%
%AMOC8*
5,1,8,0,0,1.08239X$1,22.5*
%
%ADD10C,0.0000*%
%ADD11C,0.0080*%
%ADD12C,0.0060*%
%ADD13C,0.0050*%
%ADD14R,0.0098X0.0098*%
D10*
X005775Y000139D02*
X005775Y008013D01*
X021523Y008013D01*
X021523Y000139D01*
X005775Y000139D01*
X005775Y000695D02*
X005775Y005095D01*
X021523Y005095D02*
X021523Y000695D01*
D11*
X002527Y001813D02*
X002527Y002147D01*
X002065Y002147D01*
X002065Y003643D01*
X002527Y003643D01*
X002527Y003978D01*
X004023Y003978D01*
X004319Y003683D01*
X005165Y003683D01*
X005165Y004726D01*
X005736Y004726D01*
X005736Y004411D02*
X005736Y001380D01*
X005736Y001065D02*
X005165Y001065D01*
X005165Y002108D01*
X004319Y002108D01*
X004023Y001813D01*
X002527Y001813D01*
X018374Y005572D02*
X018374Y005966D01*
X019082Y005966D01*
X018374Y005572D02*
X021444Y005572D01*
X021444Y007935D01*
X018374Y007935D01*
X018374Y007541D01*
X019082Y007541D01*
X021563Y004726D02*
X022133Y004726D01*
X022133Y003683D01*
X022980Y003683D01*
X023275Y003978D01*
X024771Y003978D01*
X024771Y003643D01*
X025234Y003643D01*
X025234Y002147D01*
X024771Y002147D01*
X024771Y001813D01*
X023275Y001813D01*
X022980Y002108D01*
X022133Y002108D01*
X022133Y001065D01*
X021563Y001065D01*
X021563Y001380D02*
X021563Y004411D01*
D12*
X019128Y003911D02*
X019128Y003854D01*
X018901Y003628D01*
X019128Y003628D01*
X018760Y003684D02*
X018703Y003628D01*
X018590Y003628D01*
X018533Y003684D01*
X018533Y003911D01*
X018590Y003968D01*
X018703Y003968D01*
X018760Y003911D01*
X018901Y003911D02*
X018958Y003968D01*
X019072Y003968D01*
X019128Y003911D01*
X017868Y003911D02*
X017868Y003854D01*
X017642Y003628D01*
X017868Y003628D01*
X017500Y003628D02*
X017273Y003628D01*
X017273Y003968D01*
X017642Y003911D02*
X017698Y003968D01*
X017812Y003968D01*
X017868Y003911D01*
X016530Y003911D02*
X016530Y003854D01*
X016303Y003628D01*
X016530Y003628D01*
X016162Y003628D02*
X016048Y003741D01*
X016105Y003741D02*
X015935Y003741D01*
X015935Y003628D02*
X015935Y003968D01*
X016105Y003968D01*
X016162Y003911D01*
X016162Y003798D01*
X016105Y003741D01*
X016303Y003911D02*
X016360Y003968D01*
X016473Y003968D01*
X016530Y003911D01*
X014977Y005596D02*
X014977Y005936D01*
X014807Y005766D01*
X015034Y005766D01*
X014666Y005653D02*
X014609Y005596D01*
X014495Y005596D01*
X014439Y005653D01*
X014439Y005880D01*
X014495Y005936D01*
X014609Y005936D01*
X014666Y005880D01*
X013940Y006283D02*
X013600Y006283D01*
X013600Y006453D01*
X013657Y006510D01*
X013770Y006510D01*
X013827Y006453D01*
X013827Y006283D01*
X013827Y006397D02*
X013940Y006510D01*
X013884Y006651D02*
X013940Y006708D01*
X013940Y006822D01*
X013884Y006878D01*
X013827Y006878D01*
X013770Y006822D01*
X013770Y006765D01*
X013770Y006822D02*
X013714Y006878D01*
X013657Y006878D01*
X013600Y006822D01*
X013600Y006708D01*
X013657Y006651D01*
X012123Y006575D02*
X012010Y006689D01*
X012123Y006802D01*
X011783Y006802D01*
X011783Y006944D02*
X012123Y006944D01*
X012123Y007170D01*
X012123Y007312D02*
X011783Y007312D01*
X011783Y007482D01*
X011840Y007539D01*
X011953Y007539D01*
X012010Y007482D01*
X012010Y007312D01*
X012010Y007425D02*
X012123Y007539D01*
X011783Y007170D02*
X011783Y006944D01*
X011953Y006944D02*
X011953Y007057D01*
X011783Y006575D02*
X012123Y006575D01*
X012066Y006434D02*
X011840Y006434D01*
X011783Y006377D01*
X011783Y006264D01*
X011840Y006207D01*
X012066Y006207D01*
X012123Y006264D01*
X012123Y006377D01*
X012066Y006434D01*
X011953Y006066D02*
X011840Y006066D01*
X011783Y006009D01*
X011783Y005839D01*
X012123Y005839D01*
X012010Y005839D02*
X012010Y006009D01*
X011953Y006066D01*
X014467Y007470D02*
X014523Y007413D01*
X014637Y007413D01*
X014693Y007470D01*
X014835Y007470D02*
X014892Y007413D01*
X015005Y007413D01*
X015062Y007470D01*
X015062Y007527D01*
X015005Y007584D01*
X014948Y007584D01*
X015005Y007584D02*
X015062Y007640D01*
X015062Y007697D01*
X015005Y007754D01*
X014892Y007754D01*
X014835Y007697D01*
X014693Y007697D02*
X014637Y007754D01*
X014523Y007754D01*
X014467Y007697D01*
X014467Y007470D01*
X016017Y007313D02*
X016017Y007276D01*
X016017Y007313D02*
X016635Y007313D01*
X016635Y007276D01*
X016635Y006959D02*
X016635Y006922D01*
X016017Y006959D02*
X016017Y006548D01*
X016635Y006548D02*
X016635Y006585D01*
X016635Y006231D02*
X016635Y006194D01*
X016017Y006194D01*
X016017Y006231D01*
X016039Y006015D02*
X015925Y006015D01*
X015982Y006015D02*
X015982Y005675D01*
X015925Y005675D02*
X016039Y005675D01*
X016171Y005732D02*
X016228Y005675D01*
X016341Y005675D01*
X016398Y005732D01*
X016539Y005675D02*
X016766Y005675D01*
X016653Y005675D02*
X016653Y006015D01*
X016539Y005902D01*
X016398Y005958D02*
X016341Y006015D01*
X016228Y006015D01*
X016171Y005958D01*
X016171Y005732D01*
X018325Y006497D02*
X018381Y006441D01*
X018608Y006441D01*
X018665Y006497D01*
X018665Y006611D01*
X018608Y006667D01*
X018381Y006667D02*
X018325Y006611D01*
X018325Y006497D01*
X018325Y006809D02*
X018495Y006809D01*
X018438Y006922D01*
X018438Y006979D01*
X018495Y007036D01*
X018608Y007036D01*
X018665Y006979D01*
X018665Y006866D01*
X018608Y006809D01*
X018325Y006809D02*
X018325Y007036D01*
X020451Y007080D02*
X020791Y007080D01*
X020791Y007193D02*
X020791Y006966D01*
X020621Y006825D02*
X020507Y006825D01*
X020451Y006768D01*
X020451Y006598D01*
X020791Y006598D01*
X020677Y006598D02*
X020677Y006768D01*
X020621Y006825D01*
X020564Y006966D02*
X020451Y007080D01*
X020451Y006457D02*
X020451Y006343D01*
X020451Y006400D02*
X020734Y006400D01*
X020791Y006343D01*
X020791Y006286D01*
X020734Y006230D01*
X019601Y001684D02*
X019374Y001684D01*
X019487Y001684D02*
X019487Y001344D01*
X019232Y001401D02*
X019232Y001684D01*
X019006Y001684D02*
X019006Y001401D01*
X019062Y001344D01*
X019176Y001344D01*
X019232Y001401D01*
X018864Y001401D02*
X018864Y001628D01*
X018807Y001684D01*
X018694Y001684D01*
X018637Y001628D01*
X018637Y001401D01*
X018694Y001344D01*
X018807Y001344D01*
X018864Y001401D01*
X018382Y001514D02*
X018269Y001514D01*
X018127Y001514D02*
X018071Y001458D01*
X017901Y001458D01*
X018014Y001458D02*
X018127Y001344D01*
X018269Y001344D02*
X018269Y001684D01*
X018496Y001684D01*
X018127Y001628D02*
X018127Y001514D01*
X018127Y001628D02*
X018071Y001684D01*
X017901Y001684D01*
X017901Y001344D01*
X017002Y001344D02*
X016775Y001344D01*
X017002Y001571D01*
X017002Y001628D01*
X016946Y001684D01*
X016832Y001684D01*
X016775Y001628D01*
X016634Y001628D02*
X016577Y001684D01*
X016464Y001684D01*
X016407Y001628D01*
X016407Y001401D01*
X016464Y001344D01*
X016577Y001344D01*
X016634Y001401D01*
X016275Y001344D02*
X016162Y001344D01*
X016218Y001344D02*
X016218Y001684D01*
X016162Y001684D02*
X016275Y001684D01*
X014089Y001344D02*
X013862Y001344D01*
X013976Y001344D02*
X013976Y001684D01*
X013862Y001571D01*
X013494Y001684D02*
X013494Y001344D01*
X013721Y001344D01*
X012829Y001344D02*
X012602Y001344D01*
X012716Y001344D02*
X012716Y001684D01*
X012602Y001571D01*
X012461Y001628D02*
X012404Y001684D01*
X012291Y001684D01*
X012234Y001628D01*
X012234Y001401D01*
X012291Y001344D01*
X012404Y001344D01*
X012461Y001401D01*
X010861Y001344D02*
X010634Y001344D01*
X010747Y001344D02*
X010747Y001684D01*
X010634Y001571D01*
X010492Y001684D02*
X010265Y001344D01*
X010492Y001344D02*
X010265Y001684D01*
X009050Y001344D02*
X008823Y001344D01*
X008936Y001344D02*
X008936Y001684D01*
X008823Y001571D01*
X008681Y001458D02*
X008681Y001684D01*
X008454Y001684D02*
X008454Y001458D01*
X008568Y001344D01*
X008681Y001458D01*
X008313Y001401D02*
X008313Y001628D01*
X008256Y001684D01*
X008143Y001684D01*
X008086Y001628D01*
X008086Y001401D01*
X008143Y001344D01*
X008256Y001344D01*
X008313Y001401D01*
X007945Y001344D02*
X007945Y001684D01*
X007831Y001571D01*
X007718Y001684D01*
X007718Y001344D01*
X007695Y004264D02*
X007695Y004604D01*
X007865Y004604D01*
X007922Y004547D01*
X007922Y004434D01*
X007865Y004377D01*
X007695Y004377D01*
X007808Y004377D02*
X007922Y004264D01*
X008063Y004264D02*
X008063Y004604D01*
X008290Y004604D01*
X008432Y004604D02*
X008545Y004604D01*
X008488Y004604D02*
X008488Y004264D01*
X008432Y004264D02*
X008545Y004264D01*
X008677Y004264D02*
X008677Y004604D01*
X008904Y004264D01*
X008904Y004604D01*
X008177Y004434D02*
X008063Y004434D01*
D13*
X009988Y003486D02*
X011169Y003486D01*
X011169Y002305D01*
X009988Y002305D01*
X009988Y003486D01*
X015972Y003210D02*
X015972Y002423D01*
X016169Y002226D01*
X016956Y002226D01*
X017153Y002423D01*
X017153Y003210D01*
X016956Y003407D01*
X016169Y003407D01*
X015972Y003210D01*
X016130Y003210D02*
X016132Y003222D01*
X016137Y003233D01*
X016146Y003242D01*
X016157Y003247D01*
X016169Y003249D01*
X016181Y003247D01*
X016192Y003242D01*
X016201Y003233D01*
X016206Y003222D01*
X016208Y003210D01*
X016206Y003198D01*
X016201Y003187D01*
X016192Y003178D01*
X016181Y003173D01*
X016169Y003171D01*
X016157Y003173D01*
X016146Y003178D01*
X016137Y003187D01*
X016132Y003198D01*
X016130Y003210D01*
D14*
X012468Y006547D03*
M02*
