G75*
%MOIN*%
%OFA0B0*%
%FSLAX24Y24*%
%IPPOS*%
%LPD*%
%AMOC8*
5,1,8,0,0,1.08239X$1,22.5*
%
%ADD10C,0.0000*%
%ADD11R,0.1650X0.1050*%
%ADD12C,0.0570*%
%ADD13C,0.0079*%
%ADD14C,0.0238*%
%ADD15C,0.0240*%
D10*
X005775Y000139D02*
X005775Y008013D01*
X021523Y008013D01*
X021523Y000139D01*
X005775Y000139D01*
X005775Y000695D02*
X005775Y005095D01*
X021523Y005095D02*
X021523Y000695D01*
D11*
X020690Y001519D03*
X020690Y004271D03*
X006608Y004271D03*
X006608Y001519D03*
D12*
X019082Y006360D03*
X019082Y007147D03*
D13*
X019053Y007168D02*
X005915Y007168D01*
X005915Y007091D02*
X018662Y007091D01*
X018658Y007114D02*
X018668Y007048D01*
X018689Y006984D01*
X018719Y006925D01*
X018759Y006871D01*
X018806Y006824D01*
X018860Y006784D01*
X018919Y006754D01*
X018981Y006734D01*
X018865Y006686D01*
X018756Y006578D01*
X018698Y006436D01*
X018698Y006283D01*
X018756Y006142D01*
X018865Y006034D01*
X019006Y005975D01*
X019159Y005975D01*
X019300Y006034D01*
X019408Y006142D01*
X019467Y006283D01*
X019467Y006436D01*
X019408Y006578D01*
X019300Y006686D01*
X019184Y006734D01*
X019245Y006754D01*
X019305Y006784D01*
X019359Y006824D01*
X019406Y006871D01*
X019445Y006925D01*
X019476Y006984D01*
X019496Y007048D01*
X019507Y007114D01*
X019507Y007118D01*
X019112Y007118D01*
X019112Y007177D01*
X019053Y007177D01*
X019053Y007572D01*
X019049Y007572D01*
X018983Y007561D01*
X018919Y007541D01*
X018860Y007510D01*
X018806Y007471D01*
X018759Y007424D01*
X018719Y007370D01*
X018689Y007310D01*
X018668Y007247D01*
X018658Y007181D01*
X018658Y007177D01*
X019053Y007177D01*
X019053Y007118D01*
X018658Y007118D01*
X018658Y007114D01*
X018679Y007014D02*
X005915Y007014D01*
X005915Y006937D02*
X018713Y006937D01*
X018770Y006859D02*
X005915Y006859D01*
X005915Y006782D02*
X018864Y006782D01*
X018911Y006705D02*
X005915Y006705D01*
X005915Y006628D02*
X018806Y006628D01*
X018745Y006550D02*
X005915Y006550D01*
X005915Y006473D02*
X018713Y006473D01*
X018698Y006396D02*
X005915Y006396D01*
X005915Y006319D02*
X018698Y006319D01*
X018715Y006241D02*
X005915Y006241D01*
X005915Y006164D02*
X017316Y006164D01*
X017338Y006186D02*
X017209Y006057D01*
X017209Y004615D01*
X017338Y004487D01*
X017574Y004251D01*
X017756Y004251D01*
X017992Y004251D01*
X018121Y004379D01*
X018121Y004561D01*
X017992Y004689D01*
X017756Y004689D01*
X017648Y004797D01*
X017648Y006057D01*
X017520Y006186D01*
X017338Y006186D01*
X017239Y006087D02*
X005915Y006087D01*
X005915Y006010D02*
X017209Y006010D01*
X017209Y005932D02*
X005915Y005932D01*
X005915Y005855D02*
X017209Y005855D01*
X017209Y005778D02*
X005915Y005778D01*
X005915Y005701D02*
X017209Y005701D01*
X017209Y005623D02*
X005915Y005623D01*
X005915Y005546D02*
X017209Y005546D01*
X017209Y005469D02*
X005915Y005469D01*
X005915Y005392D02*
X017209Y005392D01*
X017209Y005314D02*
X005915Y005314D01*
X005915Y005237D02*
X017209Y005237D01*
X017209Y005160D02*
X005915Y005160D01*
X005915Y005083D02*
X017209Y005083D01*
X017209Y005006D02*
X005915Y005006D01*
X005915Y004935D02*
X005915Y007874D01*
X021384Y007874D01*
X021384Y004935D01*
X020730Y004935D01*
X020730Y004310D01*
X020651Y004310D01*
X018052Y004310D01*
X018121Y004388D02*
X019726Y004388D01*
X019726Y004465D02*
X018121Y004465D01*
X018121Y004542D02*
X019726Y004542D01*
X019726Y004619D02*
X018062Y004619D01*
X017749Y004697D02*
X019726Y004697D01*
X019726Y004774D02*
X017671Y004774D01*
X017648Y004851D02*
X019736Y004851D01*
X019736Y004850D02*
X019726Y004814D01*
X019726Y004310D01*
X020651Y004310D01*
X020651Y004232D01*
X019726Y004232D01*
X019726Y003728D01*
X019736Y003692D01*
X019754Y003661D01*
X019780Y003635D01*
X019812Y003616D01*
X019847Y003607D01*
X020651Y003607D01*
X020651Y004232D01*
X020730Y004232D01*
X020730Y003607D01*
X021384Y003607D01*
X021384Y002184D01*
X020730Y002184D01*
X020730Y001559D01*
X020651Y001559D01*
X020651Y002184D01*
X019847Y002184D01*
X019812Y002174D01*
X019780Y002156D01*
X019754Y002130D01*
X019736Y002098D01*
X019726Y002063D01*
X019726Y001559D01*
X020651Y001559D01*
X020651Y001480D01*
X020730Y001480D01*
X020730Y000855D01*
X021384Y000855D01*
X021384Y000279D01*
X005915Y000279D01*
X005915Y000855D01*
X006569Y000855D01*
X006569Y001480D01*
X006647Y001480D01*
X006647Y000855D01*
X007451Y000855D01*
X007487Y000865D01*
X007519Y000883D01*
X007545Y000909D01*
X007563Y000941D01*
X007572Y000976D01*
X007572Y001480D01*
X006647Y001480D01*
X006647Y001559D01*
X006569Y001559D01*
X006569Y002184D01*
X005915Y002184D01*
X005915Y003607D01*
X006569Y003607D01*
X006569Y004232D01*
X006647Y004232D01*
X006647Y003607D01*
X007451Y003607D01*
X007487Y003616D01*
X007519Y003635D01*
X007545Y003661D01*
X007563Y003692D01*
X007572Y003728D01*
X007572Y004232D01*
X006647Y004232D01*
X006647Y004310D01*
X017514Y004310D01*
X017437Y004388D02*
X007572Y004388D01*
X007572Y004465D02*
X017360Y004465D01*
X017283Y004542D02*
X007572Y004542D01*
X007572Y004619D02*
X017209Y004619D01*
X017209Y004697D02*
X007572Y004697D01*
X007572Y004774D02*
X017209Y004774D01*
X017209Y004851D02*
X007562Y004851D01*
X007563Y004850D02*
X007545Y004882D01*
X007519Y004908D01*
X007487Y004926D01*
X007451Y004935D01*
X006647Y004935D01*
X006647Y004310D01*
X007572Y004310D01*
X007572Y004814D01*
X007563Y004850D01*
X007478Y004928D02*
X017209Y004928D01*
X017648Y004928D02*
X019820Y004928D01*
X019812Y004926D02*
X019780Y004908D01*
X019754Y004882D01*
X019736Y004850D01*
X019812Y004926D02*
X019847Y004935D01*
X020651Y004935D01*
X020651Y004310D01*
X020651Y004233D02*
X006647Y004233D01*
X006647Y004156D02*
X006569Y004156D01*
X006569Y004079D02*
X006647Y004079D01*
X006647Y004001D02*
X006569Y004001D01*
X006569Y003924D02*
X006647Y003924D01*
X006647Y003847D02*
X006569Y003847D01*
X006569Y003770D02*
X006647Y003770D01*
X006647Y003692D02*
X006569Y003692D01*
X006569Y003615D02*
X006647Y003615D01*
X005915Y003538D02*
X021384Y003538D01*
X021384Y003461D02*
X005915Y003461D01*
X005915Y003383D02*
X021384Y003383D01*
X021384Y003306D02*
X005915Y003306D01*
X005915Y003229D02*
X021384Y003229D01*
X021384Y003152D02*
X005915Y003152D01*
X005915Y003075D02*
X021384Y003075D01*
X021384Y002997D02*
X005915Y002997D01*
X005915Y002920D02*
X021384Y002920D01*
X021384Y002843D02*
X005915Y002843D01*
X005915Y002766D02*
X021384Y002766D01*
X021384Y002688D02*
X005915Y002688D01*
X005915Y002611D02*
X021384Y002611D01*
X021384Y002534D02*
X005915Y002534D01*
X005915Y002457D02*
X021384Y002457D01*
X021384Y002379D02*
X005915Y002379D01*
X005915Y002302D02*
X021384Y002302D01*
X021384Y002225D02*
X005915Y002225D01*
X006569Y002148D02*
X006647Y002148D01*
X006647Y002184D02*
X006647Y001559D01*
X007572Y001559D01*
X007572Y002063D01*
X007563Y002098D01*
X007545Y002130D01*
X007519Y002156D01*
X007487Y002174D01*
X007451Y002184D01*
X006647Y002184D01*
X006647Y002070D02*
X006569Y002070D01*
X006569Y001993D02*
X006647Y001993D01*
X006647Y001916D02*
X006569Y001916D01*
X006569Y001839D02*
X006647Y001839D01*
X006647Y001761D02*
X006569Y001761D01*
X006569Y001684D02*
X006647Y001684D01*
X006647Y001607D02*
X006569Y001607D01*
X006647Y001530D02*
X020651Y001530D01*
X020651Y001480D02*
X019726Y001480D01*
X019726Y000976D01*
X019736Y000941D01*
X019754Y000909D01*
X019780Y000883D01*
X019812Y000865D01*
X019847Y000855D01*
X020651Y000855D01*
X020651Y001480D01*
X020651Y001452D02*
X020730Y001452D01*
X020730Y001375D02*
X020651Y001375D01*
X020651Y001298D02*
X020730Y001298D01*
X020730Y001221D02*
X020651Y001221D01*
X020651Y001143D02*
X020730Y001143D01*
X020730Y001066D02*
X020651Y001066D01*
X020651Y000989D02*
X020730Y000989D01*
X020730Y000912D02*
X020651Y000912D01*
X021384Y000835D02*
X005915Y000835D01*
X005915Y000757D02*
X021384Y000757D01*
X021384Y000680D02*
X005915Y000680D01*
X005915Y000603D02*
X021384Y000603D01*
X021384Y000526D02*
X005915Y000526D01*
X005915Y000448D02*
X021384Y000448D01*
X021384Y000371D02*
X005915Y000371D01*
X005915Y000294D02*
X021384Y000294D01*
X019752Y000912D02*
X007546Y000912D01*
X007572Y000989D02*
X019726Y000989D01*
X019726Y001066D02*
X007572Y001066D01*
X007572Y001143D02*
X019726Y001143D01*
X019726Y001221D02*
X007572Y001221D01*
X007572Y001298D02*
X019726Y001298D01*
X019726Y001375D02*
X007572Y001375D01*
X007572Y001452D02*
X019726Y001452D01*
X019726Y001607D02*
X007572Y001607D01*
X007572Y001684D02*
X019726Y001684D01*
X019726Y001761D02*
X007572Y001761D01*
X007572Y001839D02*
X019726Y001839D01*
X019726Y001916D02*
X007572Y001916D01*
X007572Y001993D02*
X019726Y001993D01*
X019728Y002070D02*
X007570Y002070D01*
X007527Y002148D02*
X019771Y002148D01*
X020651Y002148D02*
X020730Y002148D01*
X020730Y002070D02*
X020651Y002070D01*
X020651Y001993D02*
X020730Y001993D01*
X020730Y001916D02*
X020651Y001916D01*
X020651Y001839D02*
X020730Y001839D01*
X020730Y001761D02*
X020651Y001761D01*
X020651Y001684D02*
X020730Y001684D01*
X020730Y001607D02*
X020651Y001607D01*
X020651Y003615D02*
X020730Y003615D01*
X020730Y003692D02*
X020651Y003692D01*
X020651Y003770D02*
X020730Y003770D01*
X020730Y003847D02*
X020651Y003847D01*
X020651Y003924D02*
X020730Y003924D01*
X020730Y004001D02*
X020651Y004001D01*
X020651Y004079D02*
X020730Y004079D01*
X020730Y004156D02*
X020651Y004156D01*
X020651Y004388D02*
X020730Y004388D01*
X020730Y004465D02*
X020651Y004465D01*
X020651Y004542D02*
X020730Y004542D01*
X020730Y004619D02*
X020651Y004619D01*
X020651Y004697D02*
X020730Y004697D01*
X020730Y004774D02*
X020651Y004774D01*
X020651Y004851D02*
X020730Y004851D01*
X020730Y004928D02*
X020651Y004928D01*
X021384Y005006D02*
X017648Y005006D01*
X017648Y005083D02*
X021384Y005083D01*
X021384Y005160D02*
X017648Y005160D01*
X017648Y005237D02*
X021384Y005237D01*
X021384Y005314D02*
X017648Y005314D01*
X017648Y005392D02*
X021384Y005392D01*
X021384Y005469D02*
X017648Y005469D01*
X017648Y005546D02*
X021384Y005546D01*
X021384Y005623D02*
X017648Y005623D01*
X017648Y005701D02*
X021384Y005701D01*
X021384Y005778D02*
X017648Y005778D01*
X017648Y005855D02*
X021384Y005855D01*
X021384Y005932D02*
X017648Y005932D01*
X017648Y006010D02*
X018923Y006010D01*
X018812Y006087D02*
X017618Y006087D01*
X017541Y006164D02*
X018747Y006164D01*
X019241Y006010D02*
X021384Y006010D01*
X021384Y006087D02*
X019353Y006087D01*
X019417Y006164D02*
X021384Y006164D01*
X021384Y006241D02*
X019449Y006241D01*
X019467Y006319D02*
X021384Y006319D01*
X021384Y006396D02*
X019467Y006396D01*
X019451Y006473D02*
X021384Y006473D01*
X021384Y006550D02*
X019419Y006550D01*
X019358Y006628D02*
X021384Y006628D01*
X021384Y006705D02*
X019254Y006705D01*
X019300Y006782D02*
X021384Y006782D01*
X021384Y006859D02*
X019394Y006859D01*
X019451Y006937D02*
X021384Y006937D01*
X021384Y007014D02*
X019485Y007014D01*
X019503Y007091D02*
X021384Y007091D01*
X021384Y007168D02*
X019112Y007168D01*
X019112Y007177D02*
X019507Y007177D01*
X019507Y007181D01*
X019496Y007247D01*
X019476Y007310D01*
X019445Y007370D01*
X019406Y007424D01*
X019359Y007471D01*
X019305Y007510D01*
X019245Y007541D01*
X019182Y007561D01*
X019116Y007572D01*
X019112Y007572D01*
X019112Y007177D01*
X019112Y007245D02*
X019053Y007245D01*
X019053Y007323D02*
X019112Y007323D01*
X019112Y007400D02*
X019053Y007400D01*
X019053Y007477D02*
X019112Y007477D01*
X019112Y007554D02*
X019053Y007554D01*
X018962Y007554D02*
X005915Y007554D01*
X005915Y007477D02*
X018814Y007477D01*
X018741Y007400D02*
X005915Y007400D01*
X005915Y007323D02*
X018695Y007323D01*
X018668Y007245D02*
X005915Y007245D01*
X005915Y007632D02*
X021384Y007632D01*
X021384Y007709D02*
X005915Y007709D01*
X005915Y007786D02*
X021384Y007786D01*
X021384Y007863D02*
X005915Y007863D01*
X005915Y004935D02*
X006569Y004935D01*
X006569Y004310D01*
X006647Y004310D01*
X006647Y004388D02*
X006569Y004388D01*
X006569Y004465D02*
X006647Y004465D01*
X006647Y004542D02*
X006569Y004542D01*
X006569Y004619D02*
X006647Y004619D01*
X006647Y004697D02*
X006569Y004697D01*
X006569Y004774D02*
X006647Y004774D01*
X006647Y004851D02*
X006569Y004851D01*
X006569Y004928D02*
X006647Y004928D01*
X007572Y004156D02*
X019726Y004156D01*
X019726Y004079D02*
X007572Y004079D01*
X007572Y004001D02*
X019726Y004001D01*
X019726Y003924D02*
X007572Y003924D01*
X007572Y003847D02*
X019726Y003847D01*
X019726Y003770D02*
X007572Y003770D01*
X007563Y003692D02*
X019735Y003692D01*
X019815Y003615D02*
X007483Y003615D01*
X006647Y001452D02*
X006569Y001452D01*
X006569Y001375D02*
X006647Y001375D01*
X006647Y001298D02*
X006569Y001298D01*
X006569Y001221D02*
X006647Y001221D01*
X006647Y001143D02*
X006569Y001143D01*
X006569Y001066D02*
X006647Y001066D01*
X006647Y000989D02*
X006569Y000989D01*
X006569Y000912D02*
X006647Y000912D01*
X019496Y007245D02*
X021384Y007245D01*
X021384Y007323D02*
X019469Y007323D01*
X019423Y007400D02*
X021384Y007400D01*
X021384Y007477D02*
X019350Y007477D01*
X019202Y007554D02*
X021384Y007554D01*
D14*
X021130Y007620D03*
X018531Y007620D03*
X017901Y007620D03*
X017350Y007620D03*
X016326Y007226D03*
X016326Y006754D03*
X015618Y006754D03*
X016326Y006281D03*
X017429Y005966D03*
X016641Y005179D03*
X017901Y004470D03*
X017980Y003840D03*
X017429Y003840D03*
X016799Y003840D03*
X016326Y003840D03*
X016563Y003525D03*
X016563Y003053D03*
X016563Y002580D03*
X016799Y001950D03*
X016326Y001950D03*
X015618Y001950D03*
X015067Y001950D03*
X014437Y001950D03*
X013885Y001950D03*
X013334Y001950D03*
X012783Y001950D03*
X012232Y001950D03*
X011681Y001950D03*
X011130Y001872D03*
X010578Y001872D03*
X010027Y001872D03*
X009476Y001950D03*
X008925Y001950D03*
X008374Y001950D03*
X007822Y001950D03*
X007271Y001950D03*
X006720Y001950D03*
X006090Y001950D03*
X006090Y000612D03*
X007665Y000612D03*
X009319Y000612D03*
X011130Y000612D03*
X012862Y000612D03*
X014673Y000612D03*
X016641Y000612D03*
X018925Y000612D03*
X021130Y000612D03*
X021287Y001950D03*
X020736Y001950D03*
X020185Y001950D03*
X019633Y001950D03*
X019082Y001950D03*
X018531Y001950D03*
X017980Y001950D03*
X017429Y001950D03*
X018531Y003840D03*
X019082Y003840D03*
X019633Y003840D03*
X020185Y003840D03*
X020736Y003840D03*
X021287Y003840D03*
X021130Y005179D03*
X018925Y005179D03*
X021130Y006439D03*
X015618Y003840D03*
X015067Y003840D03*
X014437Y003840D03*
X013885Y003840D03*
X013334Y003840D03*
X012783Y003840D03*
X012232Y003840D03*
X011681Y003840D03*
X011130Y003919D03*
X010578Y003919D03*
X010027Y003919D03*
X009476Y003840D03*
X008925Y003840D03*
X008374Y003840D03*
X007822Y003840D03*
X007271Y003840D03*
X006720Y003840D03*
X006090Y003840D03*
X006090Y005179D03*
X007665Y005179D03*
X009319Y005179D03*
X011130Y005179D03*
X012862Y005179D03*
X014673Y005179D03*
X013807Y005966D03*
X013807Y006517D03*
X013964Y007226D03*
X015145Y007620D03*
X012311Y007620D03*
X011996Y006596D03*
X009555Y007620D03*
X006169Y007620D03*
X006169Y006439D03*
D15*
X017429Y005966D02*
X017429Y004706D01*
X017665Y004470D01*
X017901Y004470D01*
M02*
