G75*
%MOIN*%
%OFA0B0*%
%FSLAX24Y24*%
%IPPOS*%
%LPD*%
%AMOC8*
5,1,8,0,0,1.08239X$1,22.5*
%
%ADD10C,0.0000*%
%ADD11C,0.0630*%
%ADD12R,0.0749X0.0434*%
%ADD13R,0.0512X0.0276*%
%ADD14R,0.0512X0.0434*%
%ADD15R,0.0473X0.0434*%
%ADD16R,0.0434X0.0473*%
%ADD17R,0.0434X0.0434*%
%ADD18R,0.0512X0.0257*%
%ADD19R,0.0552X0.0631*%
%ADD20R,0.0631X0.0552*%
%ADD21C,0.0610*%
%ADD22C,0.0158*%
%ADD23C,0.0079*%
%ADD24R,0.0355X0.0355*%
%ADD25R,0.1640X0.0640*%
D10*
X002153Y000139D02*
X002153Y008013D01*
X017901Y008013D01*
X017901Y000139D01*
X002153Y000139D01*
D11*
X002468Y000612D02*
X017586Y000612D01*
X017586Y005179D02*
X002468Y005179D01*
D12*
X006563Y003446D03*
D13*
X006444Y002895D03*
X007468Y002895D03*
D14*
X007468Y002344D03*
X006444Y002344D03*
X007468Y003446D03*
D15*
X008196Y002895D03*
X008866Y002895D03*
X005716Y002895D03*
X005047Y002895D03*
X004437Y002679D03*
X004437Y002009D03*
X009633Y006261D03*
X009633Y006931D03*
X010795Y007069D03*
X011464Y007069D03*
X014889Y004313D03*
X015559Y004313D03*
X015086Y002895D03*
X014417Y002895D03*
D16*
X012881Y004313D03*
X012212Y004313D03*
X009948Y002679D03*
X009948Y002009D03*
D17*
X010657Y002895D03*
X011444Y002895D03*
X013492Y004313D03*
X014279Y004313D03*
D18*
X013216Y006380D03*
X013216Y006754D03*
X013216Y007128D03*
X012193Y007128D03*
X012193Y006380D03*
D19*
X011504Y006360D03*
X010756Y006360D03*
D20*
X014279Y006380D03*
X014279Y007128D03*
D21*
X015460Y007147D03*
X015460Y006360D03*
D22*
X012705Y003122D02*
X012705Y002512D01*
X012705Y003122D02*
X013177Y003122D01*
X013177Y002512D01*
X012705Y002512D01*
X012705Y002669D02*
X013177Y002669D01*
X013177Y002826D02*
X012705Y002826D01*
X012705Y002983D02*
X013177Y002983D01*
D23*
X013353Y002955D02*
X013353Y002875D01*
X013353Y002955D02*
X013709Y002955D01*
X013709Y002875D01*
X013353Y002875D01*
X013353Y002953D02*
X013709Y002953D01*
X013353Y003072D02*
X013353Y003152D01*
X013709Y003152D01*
X013709Y003072D01*
X013353Y003072D01*
X013353Y003150D02*
X013709Y003150D01*
X013353Y002758D02*
X013353Y002678D01*
X013353Y002758D02*
X013709Y002758D01*
X013709Y002678D01*
X013353Y002678D01*
X013353Y002756D02*
X013709Y002756D01*
X013353Y002561D02*
X013353Y002481D01*
X013353Y002561D02*
X013709Y002561D01*
X013709Y002481D01*
X013353Y002481D01*
X013353Y002559D02*
X013709Y002559D01*
X012172Y002561D02*
X012172Y002481D01*
X012172Y002561D02*
X012528Y002561D01*
X012528Y002481D01*
X012172Y002481D01*
X012172Y002559D02*
X012528Y002559D01*
X012172Y002678D02*
X012172Y002758D01*
X012528Y002758D01*
X012528Y002678D01*
X012172Y002678D01*
X012172Y002756D02*
X012528Y002756D01*
X012172Y002875D02*
X012172Y002955D01*
X012528Y002955D01*
X012528Y002875D01*
X012172Y002875D01*
X012172Y002953D02*
X012528Y002953D01*
X012172Y003072D02*
X012172Y003152D01*
X012528Y003152D01*
X012528Y003072D01*
X012172Y003072D01*
X012172Y003150D02*
X012528Y003150D01*
D24*
X008846Y006301D03*
X008846Y006891D03*
D25*
X003098Y003891D03*
X003098Y002891D03*
X003098Y001891D03*
X016956Y001891D03*
X016956Y002891D03*
X016956Y003891D03*
M02*
