%
M48
M72
T01C0.0118
T02C0.0276
%
T01
X6090Y612
X7665Y612
X9319Y612
X11130Y612
X12862Y612
X14673Y612
X16641Y612
X18925Y612
X21130Y612
X21130Y1950
X20578Y1950
X19948Y1950
X19319Y1950
X18689Y1950
X18059Y1950
X17429Y1950
X16799Y1950
X16326Y1950
X15618Y1950
X15067Y1950
X14437Y1950
X13885Y1950
X13334Y1950
X12783Y1950
X12232Y1950
X11681Y1950
X11130Y1872
X10578Y1872
X10027Y1872
X9476Y1950
X8925Y1950
X8374Y1950
X7822Y1950
X7271Y1950
X6720Y1950
X6090Y1950
X6090Y3840
X6720Y3840
X7271Y3840
X7822Y3840
X8374Y3840
X8925Y3840
X9476Y3840
X10027Y3919
X10578Y3919
X11130Y3919
X11681Y3840
X12232Y3840
X12783Y3840
X13334Y3840
X13885Y3840
X14437Y3840
X15067Y3840
X15618Y3840
X16326Y3840
X16799Y3840
X16563Y3525
X16563Y3053
X16563Y2580
X17429Y3840
X18059Y3840
X18689Y3840
X19319Y3840
X19948Y3840
X20578Y3840
X21130Y3840
X21130Y5179
X18925Y5179
X17901Y4470
X16641Y5179
X17429Y5966
X16326Y6281
X16326Y6754
X15618Y6754
X16326Y7226
X17350Y7620
X17901Y7620
X18531Y7620
X21130Y7620
X21130Y6439
X15145Y7620
X13964Y7226
X13807Y6517
X13807Y5966
X14673Y5179
X12862Y5179
X11130Y5179
X9319Y5179
X7665Y5179
X6090Y5179
X6169Y6439
X6169Y7620
X9555Y7620
X11996Y6596
X12311Y7620
T02
X19082Y7147
X19082Y6360
M30
