G75*
%MOIN*%
%OFA0B0*%
%FSLAX24Y24*%
%IPPOS*%
%LPD*%
%AMOC8*
5,1,8,0,0,1.08239X$1,22.5*
%
%ADD10C,0.0000*%
%ADD11C,0.0630*%
%ADD12R,0.1690X0.0740*%
%ADD13R,0.1690X0.1090*%
%ADD14R,0.0749X0.0434*%
%ADD15R,0.0512X0.0276*%
%ADD16R,0.0512X0.0434*%
%ADD17R,0.0473X0.0434*%
%ADD18R,0.0434X0.0473*%
%ADD19R,0.0434X0.0434*%
%ADD20R,0.0512X0.0257*%
%ADD21R,0.0552X0.0631*%
%ADD22R,0.0631X0.0552*%
%ADD23C,0.0610*%
%ADD24C,0.0158*%
%ADD25C,0.0079*%
%ADD26R,0.0355X0.0355*%
D10*
X005775Y000139D02*
X005775Y008013D01*
X021523Y008013D01*
X021523Y000139D01*
X005775Y000139D01*
X005775Y000695D02*
X005775Y005095D01*
X021523Y005095D02*
X021523Y000695D01*
D11*
X021208Y000612D02*
X006090Y000612D01*
X006090Y005179D02*
X021208Y005179D01*
D12*
X020690Y002895D03*
X006608Y002895D03*
D13*
X006608Y001519D03*
X006608Y004271D03*
X020690Y004271D03*
X020690Y001519D03*
D14*
X010185Y003446D03*
D15*
X010067Y002895D03*
X011090Y002895D03*
D16*
X011090Y002344D03*
X010067Y002344D03*
X011090Y003446D03*
D17*
X008137Y002679D03*
X008137Y002009D03*
X013256Y006261D03*
X013256Y006931D03*
X014417Y007069D03*
X015086Y007069D03*
X018511Y004313D03*
X019181Y004313D03*
D18*
X016504Y004313D03*
X015834Y004313D03*
X012547Y002679D03*
X012547Y002009D03*
D19*
X013334Y002895D03*
X014122Y002895D03*
X017114Y004313D03*
X017901Y004313D03*
D20*
X016838Y006380D03*
X016838Y006754D03*
X016838Y007128D03*
X015815Y007128D03*
X015815Y006380D03*
D21*
X015126Y006360D03*
X014378Y006360D03*
D22*
X017901Y006380D03*
X017901Y007128D03*
D23*
X019082Y007147D03*
X019082Y006360D03*
D24*
X016327Y003122D02*
X016327Y002512D01*
X016327Y003122D02*
X016799Y003122D01*
X016799Y002512D01*
X016327Y002512D01*
X016327Y002669D02*
X016799Y002669D01*
X016799Y002826D02*
X016327Y002826D01*
X016327Y002983D02*
X016799Y002983D01*
D25*
X016975Y002955D02*
X016975Y002875D01*
X016975Y002955D02*
X017331Y002955D01*
X017331Y002875D01*
X016975Y002875D01*
X016975Y002953D02*
X017331Y002953D01*
X016975Y003072D02*
X016975Y003152D01*
X017331Y003152D01*
X017331Y003072D01*
X016975Y003072D01*
X016975Y003150D02*
X017331Y003150D01*
X016975Y002758D02*
X016975Y002678D01*
X016975Y002758D02*
X017331Y002758D01*
X017331Y002678D01*
X016975Y002678D01*
X016975Y002756D02*
X017331Y002756D01*
X016975Y002561D02*
X016975Y002481D01*
X016975Y002561D02*
X017331Y002561D01*
X017331Y002481D01*
X016975Y002481D01*
X016975Y002559D02*
X017331Y002559D01*
X015794Y002561D02*
X015794Y002481D01*
X015794Y002561D02*
X016150Y002561D01*
X016150Y002481D01*
X015794Y002481D01*
X015794Y002559D02*
X016150Y002559D01*
X015794Y002678D02*
X015794Y002758D01*
X016150Y002758D01*
X016150Y002678D01*
X015794Y002678D01*
X015794Y002756D02*
X016150Y002756D01*
X015794Y002875D02*
X015794Y002955D01*
X016150Y002955D01*
X016150Y002875D01*
X015794Y002875D01*
X015794Y002953D02*
X016150Y002953D01*
X015794Y003072D02*
X015794Y003152D01*
X016150Y003152D01*
X016150Y003072D01*
X015794Y003072D01*
X015794Y003150D02*
X016150Y003150D01*
D26*
X012468Y006301D03*
X012468Y006891D03*
M02*
