G75*
%MOIN*%
%OFA0B0*%
%FSLAX24Y24*%
%IPPOS*%
%LPD*%
%AMOC8*
5,1,8,0,0,1.08239X$1,22.5*
%
%ADD10C,0.0000*%
%ADD11R,0.0709X0.0394*%
%ADD12R,0.0472X0.0236*%
%ADD13R,0.0472X0.0394*%
%ADD14R,0.0433X0.0394*%
%ADD15R,0.0394X0.0433*%
%ADD16R,0.0394X0.0394*%
%ADD17R,0.0472X0.0217*%
%ADD18R,0.0512X0.0591*%
%ADD19R,0.0591X0.0512*%
%ADD20C,0.0570*%
%ADD21C,0.0148*%
%ADD22C,0.0059*%
%ADD23R,0.0315X0.0315*%
%ADD24R,0.1600X0.0600*%
%ADD25C,0.0079*%
%ADD26C,0.0238*%
%ADD27C,0.0118*%
%ADD28C,0.0120*%
%ADD29C,0.0500*%
%ADD30C,0.0240*%
%ADD31C,0.0160*%
D10*
X002153Y000139D02*
X002153Y008013D01*
X017901Y008013D01*
X017901Y000139D01*
X002153Y000139D01*
D11*
X006563Y003446D03*
D12*
X006444Y002895D03*
X007468Y002895D03*
D13*
X007468Y002344D03*
X006444Y002344D03*
X007468Y003446D03*
D14*
X008196Y002895D03*
X008866Y002895D03*
X005716Y002895D03*
X005047Y002895D03*
X004437Y002679D03*
X004437Y002009D03*
X009633Y006261D03*
X009633Y006931D03*
X010795Y007069D03*
X011464Y007069D03*
X014889Y004313D03*
X015559Y004313D03*
X015086Y002895D03*
X014417Y002895D03*
D15*
X012881Y004313D03*
X012212Y004313D03*
X009948Y002679D03*
X009948Y002009D03*
D16*
X010657Y002895D03*
X011444Y002895D03*
X013492Y004313D03*
X014279Y004313D03*
D17*
X013216Y006380D03*
X013216Y006754D03*
X013216Y007128D03*
X012193Y007128D03*
X012193Y006380D03*
D18*
X011504Y006360D03*
X010756Y006360D03*
D19*
X014279Y006380D03*
X014279Y007128D03*
D20*
X015460Y007147D03*
X015460Y006360D03*
D21*
X012720Y003107D02*
X012720Y002527D01*
X012720Y003107D02*
X013162Y003107D01*
X013162Y002527D01*
X012720Y002527D01*
X012720Y002674D02*
X013162Y002674D01*
X013162Y002821D02*
X012720Y002821D01*
X012720Y002968D02*
X013162Y002968D01*
D22*
X013363Y002945D02*
X013363Y002885D01*
X013363Y002945D02*
X013699Y002945D01*
X013699Y002885D01*
X013363Y002885D01*
X013363Y002943D02*
X013699Y002943D01*
X013363Y003082D02*
X013363Y003142D01*
X013699Y003142D01*
X013699Y003082D01*
X013363Y003082D01*
X013363Y003140D02*
X013699Y003140D01*
X013363Y002748D02*
X013363Y002688D01*
X013363Y002748D02*
X013699Y002748D01*
X013699Y002688D01*
X013363Y002688D01*
X013363Y002746D02*
X013699Y002746D01*
X013363Y002551D02*
X013363Y002491D01*
X013363Y002551D02*
X013699Y002551D01*
X013699Y002491D01*
X013363Y002491D01*
X013363Y002549D02*
X013699Y002549D01*
X012182Y002551D02*
X012182Y002491D01*
X012182Y002551D02*
X012518Y002551D01*
X012518Y002491D01*
X012182Y002491D01*
X012182Y002549D02*
X012518Y002549D01*
X012182Y002688D02*
X012182Y002748D01*
X012518Y002748D01*
X012518Y002688D01*
X012182Y002688D01*
X012182Y002746D02*
X012518Y002746D01*
X012182Y002885D02*
X012182Y002945D01*
X012518Y002945D01*
X012518Y002885D01*
X012182Y002885D01*
X012182Y002943D02*
X012518Y002943D01*
X012182Y003082D02*
X012182Y003142D01*
X012518Y003142D01*
X012518Y003082D01*
X012182Y003082D01*
X012182Y003140D02*
X012518Y003140D01*
D23*
X008846Y006301D03*
X008846Y006891D03*
D24*
X003098Y003891D03*
X003098Y002891D03*
X003098Y001891D03*
X016956Y001891D03*
X016956Y002891D03*
X016956Y003891D03*
D25*
X016917Y003924D02*
X013690Y003924D01*
X013690Y003847D02*
X016017Y003847D01*
X016017Y003852D02*
X016017Y003683D01*
X013690Y003683D01*
X013690Y004016D01*
X013730Y004016D01*
X013788Y004075D01*
X013788Y004551D01*
X013730Y004609D01*
X013254Y004609D01*
X013196Y004551D01*
X013196Y004532D01*
X013178Y004532D01*
X013178Y004570D01*
X013120Y004629D01*
X012643Y004629D01*
X012585Y004570D01*
X012585Y004055D01*
X012643Y003997D01*
X013120Y003997D01*
X013178Y004055D01*
X013178Y004093D01*
X013196Y004093D01*
X013196Y004075D01*
X013254Y004016D01*
X013373Y004016D01*
X013373Y003270D01*
X013310Y003270D01*
X013305Y003265D01*
X013293Y003277D01*
X013244Y003306D01*
X013190Y003320D01*
X012980Y003320D01*
X012980Y002856D01*
X012901Y002856D01*
X012901Y003320D01*
X012691Y003320D01*
X012637Y003306D01*
X012588Y003277D01*
X012576Y003265D01*
X012571Y003270D01*
X012508Y003270D01*
X012508Y004570D01*
X012450Y004629D01*
X011974Y004629D01*
X011916Y004570D01*
X011916Y004055D01*
X011974Y003997D01*
X012192Y003997D01*
X012192Y003683D01*
X007838Y003683D01*
X007834Y003697D01*
X007816Y003729D01*
X007790Y003755D01*
X007758Y003773D01*
X007723Y003783D01*
X007507Y003783D01*
X007507Y003683D01*
X007429Y003683D01*
X007429Y003783D01*
X007214Y003783D01*
X007178Y003773D01*
X007146Y003755D01*
X007120Y003729D01*
X007102Y003697D01*
X007093Y003662D01*
X007093Y003486D01*
X007350Y003486D01*
X007350Y003407D01*
X007093Y003407D01*
X007093Y003231D01*
X007102Y003196D01*
X007120Y003164D01*
X007146Y003138D01*
X007178Y003120D01*
X007204Y003113D01*
X007191Y003113D01*
X007133Y003055D01*
X007133Y002736D01*
X007191Y002678D01*
X007204Y002678D01*
X007178Y002671D01*
X007146Y002652D01*
X007120Y002627D01*
X007102Y002595D01*
X007093Y002559D01*
X007093Y002383D01*
X007350Y002383D01*
X007350Y002305D01*
X007093Y002305D01*
X007093Y002129D01*
X007102Y002093D01*
X007120Y002062D01*
X007146Y002036D01*
X007178Y002017D01*
X007214Y002008D01*
X007429Y002008D01*
X007429Y002108D01*
X007507Y002108D01*
X007507Y002008D01*
X007723Y002008D01*
X007758Y002017D01*
X007790Y002036D01*
X007816Y002062D01*
X007834Y002093D01*
X007838Y002108D01*
X009612Y002108D01*
X009612Y002049D01*
X009909Y002049D01*
X009909Y001970D01*
X009988Y001970D01*
X009988Y002049D01*
X010285Y002049D01*
X010285Y002108D01*
X012265Y002108D01*
X012311Y002154D01*
X012311Y002363D01*
X012571Y002363D01*
X012576Y002368D01*
X012588Y002356D01*
X012637Y002328D01*
X012691Y002313D01*
X012901Y002313D01*
X012901Y002777D01*
X012980Y002777D01*
X012980Y002313D01*
X013190Y002313D01*
X013244Y002328D01*
X013293Y002356D01*
X013305Y002368D01*
X013310Y002363D01*
X013570Y002363D01*
X013570Y002154D01*
X013617Y002108D01*
X016017Y002108D01*
X016017Y001931D01*
X016917Y001931D01*
X016917Y002108D01*
X016996Y002108D01*
X016996Y001931D01*
X016917Y001931D01*
X016917Y001852D01*
X016996Y001852D01*
X016996Y001452D01*
X017762Y001452D01*
X017762Y000279D01*
X002293Y000279D01*
X002293Y001452D01*
X003059Y001452D01*
X003059Y001852D01*
X003137Y001852D01*
X003137Y001452D01*
X003916Y001452D01*
X003952Y001461D01*
X003984Y001480D01*
X004010Y001506D01*
X004028Y001538D01*
X004037Y001573D01*
X004037Y001852D01*
X003137Y001852D01*
X003137Y001931D01*
X003059Y001931D01*
X003059Y002108D01*
X003137Y002108D01*
X003137Y001931D01*
X004037Y001931D01*
X004037Y002108D01*
X004081Y002108D01*
X004081Y002049D01*
X004397Y002049D01*
X004397Y001970D01*
X004081Y001970D01*
X004081Y001794D01*
X004090Y001759D01*
X004109Y001727D01*
X004135Y001701D01*
X004166Y001683D01*
X004202Y001673D01*
X004397Y001673D01*
X004397Y001970D01*
X004476Y001970D01*
X004476Y001673D01*
X004671Y001673D01*
X004707Y001683D01*
X004739Y001701D01*
X004765Y001727D01*
X004783Y001759D01*
X004793Y001794D01*
X004793Y001970D01*
X004476Y001970D01*
X004476Y002049D01*
X004793Y002049D01*
X004793Y002108D01*
X006075Y002108D01*
X006078Y002093D01*
X006097Y002062D01*
X006123Y002036D01*
X006154Y002017D01*
X006190Y002008D01*
X006405Y002008D01*
X006405Y002108D01*
X006484Y002108D01*
X006484Y002008D01*
X006699Y002008D01*
X006735Y002017D01*
X006766Y002036D01*
X006792Y002062D01*
X006811Y002093D01*
X006820Y002129D01*
X006820Y002305D01*
X006563Y002305D01*
X006563Y002383D01*
X006820Y002383D01*
X006820Y002559D01*
X006811Y002595D01*
X006792Y002627D01*
X006766Y002652D01*
X006735Y002671D01*
X006708Y002678D01*
X006722Y002678D01*
X006780Y002736D01*
X006780Y003055D01*
X006724Y003110D01*
X006935Y003110D01*
X006971Y003120D01*
X007003Y003138D01*
X007028Y003164D01*
X007047Y003196D01*
X007056Y003231D01*
X007056Y003407D01*
X006602Y003407D01*
X006602Y003486D01*
X006563Y003486D01*
X006563Y003637D01*
X006523Y003676D01*
X006523Y003783D01*
X006190Y003783D01*
X006154Y003773D01*
X006123Y003755D01*
X006097Y003729D01*
X006078Y003697D01*
X006075Y003683D01*
X004037Y003683D01*
X004037Y003852D01*
X003137Y003852D01*
X003137Y003683D01*
X003059Y003683D01*
X003059Y003852D01*
X003137Y003852D01*
X003137Y003931D01*
X003059Y003931D01*
X003059Y004331D01*
X002293Y004331D01*
X002293Y007874D01*
X017762Y007874D01*
X017762Y004331D01*
X016996Y004331D01*
X016996Y003931D01*
X016917Y003931D01*
X016917Y004331D01*
X016138Y004331D01*
X016103Y004321D01*
X016071Y004303D01*
X016045Y004277D01*
X016026Y004245D01*
X016017Y004210D01*
X016017Y003931D01*
X016917Y003931D01*
X016917Y003852D01*
X016996Y003852D01*
X016996Y003683D01*
X016917Y003683D01*
X016917Y003852D01*
X016017Y003852D01*
X016017Y003770D02*
X013690Y003770D01*
X013690Y003692D02*
X016017Y003692D01*
X016017Y004001D02*
X015856Y004001D01*
X015861Y004004D02*
X015829Y003986D01*
X015794Y003976D01*
X015598Y003976D01*
X015598Y004273D01*
X015519Y004273D01*
X015519Y003976D01*
X015324Y003976D01*
X015288Y003986D01*
X015257Y004004D01*
X015231Y004030D01*
X015212Y004062D01*
X015205Y004088D01*
X015205Y004075D01*
X015147Y004016D01*
X014632Y004016D01*
X014574Y004074D01*
X014517Y004016D01*
X014041Y004016D01*
X013983Y004075D01*
X013983Y004551D01*
X014041Y004609D01*
X014108Y004609D01*
X014188Y004689D01*
X014370Y004689D01*
X014451Y004609D01*
X014517Y004609D01*
X014574Y004552D01*
X014632Y004609D01*
X015147Y004609D01*
X015205Y004551D01*
X015205Y004537D01*
X015212Y004563D01*
X015231Y004595D01*
X015257Y004621D01*
X015288Y004639D01*
X015324Y004649D01*
X015519Y004649D01*
X015519Y004352D01*
X015598Y004352D01*
X015598Y004649D01*
X015794Y004649D01*
X015829Y004639D01*
X015861Y004621D01*
X015887Y004595D01*
X015905Y004563D01*
X015915Y004528D01*
X015915Y004352D01*
X015598Y004352D01*
X015598Y004273D01*
X015915Y004273D01*
X015915Y004097D01*
X015905Y004062D01*
X015887Y004030D01*
X015861Y004004D01*
X015910Y004079D02*
X016017Y004079D01*
X016017Y004156D02*
X015915Y004156D01*
X015915Y004233D02*
X016023Y004233D01*
X016084Y004310D02*
X015598Y004310D01*
X015598Y004233D02*
X015519Y004233D01*
X015519Y004156D02*
X015598Y004156D01*
X015598Y004079D02*
X015519Y004079D01*
X015519Y004001D02*
X015598Y004001D01*
X015261Y004001D02*
X013690Y004001D01*
X013788Y004079D02*
X013983Y004079D01*
X013983Y004156D02*
X013788Y004156D01*
X013788Y004233D02*
X013983Y004233D01*
X013983Y004310D02*
X013788Y004310D01*
X013788Y004388D02*
X013983Y004388D01*
X013983Y004465D02*
X013788Y004465D01*
X013788Y004542D02*
X013983Y004542D01*
X014118Y004619D02*
X013129Y004619D01*
X013178Y004542D02*
X013196Y004542D01*
X012634Y004619D02*
X012459Y004619D01*
X012508Y004542D02*
X012585Y004542D01*
X012585Y004465D02*
X012508Y004465D01*
X012508Y004388D02*
X012585Y004388D01*
X012585Y004310D02*
X012508Y004310D01*
X012508Y004233D02*
X012585Y004233D01*
X012585Y004156D02*
X012508Y004156D01*
X012508Y004079D02*
X012585Y004079D01*
X012639Y004001D02*
X012508Y004001D01*
X012508Y003924D02*
X013373Y003924D01*
X013373Y003847D02*
X012508Y003847D01*
X012508Y003770D02*
X013373Y003770D01*
X013373Y003692D02*
X012508Y003692D01*
X012508Y003615D02*
X013373Y003615D01*
X013373Y003538D02*
X012508Y003538D01*
X012508Y003461D02*
X013373Y003461D01*
X013373Y003383D02*
X012508Y003383D01*
X012508Y003306D02*
X012639Y003306D01*
X012901Y003306D02*
X012980Y003306D01*
X012980Y003229D02*
X012901Y003229D01*
X012901Y003152D02*
X012980Y003152D01*
X012980Y003075D02*
X012901Y003075D01*
X012901Y002997D02*
X012980Y002997D01*
X012980Y002920D02*
X012901Y002920D01*
X012901Y002766D02*
X012980Y002766D01*
X012980Y002688D02*
X012901Y002688D01*
X012901Y002611D02*
X012980Y002611D01*
X012980Y002534D02*
X012901Y002534D01*
X012901Y002457D02*
X012980Y002457D01*
X012980Y002379D02*
X012901Y002379D01*
X012311Y002302D02*
X013570Y002302D01*
X013570Y002225D02*
X012311Y002225D01*
X012304Y002148D02*
X013577Y002148D01*
X013373Y003306D02*
X013242Y003306D01*
X013124Y004001D02*
X013373Y004001D01*
X013196Y004079D02*
X013178Y004079D01*
X012192Y003924D02*
X003137Y003924D01*
X003137Y003931D02*
X004037Y003931D01*
X004037Y004210D01*
X004028Y004245D01*
X004010Y004277D01*
X003984Y004303D01*
X003952Y004321D01*
X003916Y004331D01*
X003137Y004331D01*
X003137Y003931D01*
X003137Y004001D02*
X003059Y004001D01*
X003059Y004079D02*
X003137Y004079D01*
X003137Y004156D02*
X003059Y004156D01*
X003059Y004233D02*
X003137Y004233D01*
X003137Y004310D02*
X003059Y004310D01*
X002293Y004388D02*
X011916Y004388D01*
X011916Y004465D02*
X002293Y004465D01*
X002293Y004542D02*
X011916Y004542D01*
X011965Y004619D02*
X002293Y004619D01*
X002293Y004697D02*
X017762Y004697D01*
X017762Y004774D02*
X002293Y004774D01*
X002293Y004851D02*
X017762Y004851D01*
X017762Y004928D02*
X002293Y004928D01*
X002293Y005006D02*
X017762Y005006D01*
X017762Y005083D02*
X002293Y005083D01*
X002293Y005160D02*
X017762Y005160D01*
X017762Y005237D02*
X002293Y005237D01*
X002293Y005314D02*
X017762Y005314D01*
X017762Y005392D02*
X002293Y005392D01*
X002293Y005469D02*
X017762Y005469D01*
X017762Y005546D02*
X011170Y005546D01*
X011116Y005493D02*
X011480Y005856D01*
X011590Y005747D01*
X013898Y005747D01*
X014026Y005875D01*
X014026Y006024D01*
X014616Y006024D01*
X014674Y006082D01*
X014674Y006140D01*
X015136Y006140D01*
X015243Y006034D01*
X015384Y005975D01*
X015537Y005975D01*
X015678Y006034D01*
X015786Y006142D01*
X015845Y006283D01*
X015845Y006436D01*
X015786Y006578D01*
X015678Y006686D01*
X015561Y006734D01*
X015623Y006754D01*
X015683Y006784D01*
X015737Y006824D01*
X015784Y006871D01*
X015823Y006925D01*
X015854Y006984D01*
X015874Y007048D01*
X015885Y007114D01*
X015885Y007118D01*
X015490Y007118D01*
X015490Y007177D01*
X015431Y007177D01*
X015431Y007572D01*
X015427Y007572D01*
X015361Y007561D01*
X015297Y007541D01*
X015238Y007510D01*
X015184Y007471D01*
X015137Y007424D01*
X015097Y007370D01*
X015067Y007310D01*
X015046Y007247D01*
X015036Y007181D01*
X015036Y007177D01*
X015431Y007177D01*
X015431Y007118D01*
X015036Y007118D01*
X015036Y007114D01*
X015046Y007048D01*
X015067Y006984D01*
X015097Y006925D01*
X015137Y006871D01*
X015184Y006824D01*
X015238Y006784D01*
X015297Y006754D01*
X015359Y006734D01*
X015243Y006686D01*
X015136Y006579D01*
X014674Y006579D01*
X014674Y006677D01*
X014616Y006735D01*
X014602Y006735D01*
X014628Y006742D01*
X014660Y006760D01*
X014686Y006786D01*
X014704Y006818D01*
X014714Y006853D01*
X014714Y007088D01*
X014319Y007088D01*
X014319Y007167D01*
X014714Y007167D01*
X014714Y007402D01*
X014704Y007437D01*
X014686Y007469D01*
X014660Y007495D01*
X014628Y007513D01*
X014593Y007523D01*
X014319Y007523D01*
X014319Y007167D01*
X014240Y007167D01*
X014240Y007523D01*
X013966Y007523D01*
X013930Y007513D01*
X013898Y007495D01*
X013872Y007469D01*
X013854Y007437D01*
X013844Y007402D01*
X013844Y007183D01*
X013819Y007209D01*
X013681Y007347D01*
X013125Y007347D01*
X013114Y007335D01*
X012939Y007335D01*
X012881Y007277D01*
X012881Y006978D01*
X012890Y006969D01*
X012868Y006947D01*
X012850Y006916D01*
X012841Y006880D01*
X012841Y006768D01*
X013201Y006768D01*
X013201Y006739D01*
X012841Y006739D01*
X012841Y006627D01*
X012850Y006591D01*
X012868Y006560D01*
X012890Y006538D01*
X012881Y006529D01*
X012881Y006230D01*
X012925Y006186D01*
X012484Y006186D01*
X012528Y006230D01*
X012528Y006529D01*
X012470Y006587D01*
X012295Y006587D01*
X012283Y006599D01*
X011859Y006599D01*
X011859Y006696D01*
X011801Y006754D01*
X011206Y006754D01*
X011148Y006696D01*
X011148Y006683D01*
X011141Y006709D01*
X011123Y006741D01*
X011100Y006763D01*
X011123Y006786D01*
X011141Y006818D01*
X011148Y006844D01*
X011148Y006830D01*
X011206Y006772D01*
X011722Y006772D01*
X011780Y006830D01*
X011780Y006948D01*
X011887Y006948D01*
X011915Y006920D01*
X012470Y006920D01*
X012528Y006978D01*
X012528Y007277D01*
X012470Y007335D01*
X011915Y007335D01*
X011887Y007307D01*
X011780Y007307D01*
X011722Y007365D01*
X011206Y007365D01*
X011148Y007307D01*
X011148Y007293D01*
X011141Y007319D01*
X011123Y007351D01*
X011097Y007377D01*
X011065Y007395D01*
X011030Y007405D01*
X010834Y007405D01*
X010834Y007108D01*
X010756Y007108D01*
X010756Y007405D01*
X010560Y007405D01*
X010525Y007395D01*
X010493Y007377D01*
X010467Y007351D01*
X010448Y007319D01*
X010439Y007284D01*
X010439Y007108D01*
X010756Y007108D01*
X010756Y007029D01*
X010834Y007029D01*
X010834Y006794D01*
X010795Y006794D01*
X010795Y006399D01*
X010716Y006399D01*
X010716Y006320D01*
X010795Y006320D01*
X010795Y005925D01*
X011030Y005925D01*
X011065Y005935D01*
X011097Y005953D01*
X011123Y005979D01*
X011141Y006011D01*
X011148Y006037D01*
X011148Y006023D01*
X011174Y005998D01*
X010985Y005810D01*
X009935Y005810D01*
X009792Y005953D01*
X009792Y005965D01*
X009891Y005965D01*
X009949Y006023D01*
X009949Y006499D01*
X009891Y006558D01*
X009376Y006558D01*
X009318Y006499D01*
X009318Y006023D01*
X009376Y005965D01*
X009475Y005965D01*
X009475Y005822D01*
X009711Y005586D01*
X009804Y005493D01*
X011116Y005493D01*
X011247Y005623D02*
X017762Y005623D01*
X017762Y005701D02*
X011324Y005701D01*
X011402Y005778D02*
X011559Y005778D01*
X011481Y005855D02*
X011479Y005855D01*
X011162Y006010D02*
X011141Y006010D01*
X011108Y005932D02*
X011057Y005932D01*
X011031Y005855D02*
X009890Y005855D01*
X009813Y005932D02*
X010454Y005932D01*
X010446Y005935D02*
X010481Y005925D01*
X010716Y005925D01*
X010716Y006320D01*
X010360Y006320D01*
X010360Y006046D01*
X010370Y006011D01*
X010388Y005979D01*
X010414Y005953D01*
X010446Y005935D01*
X010370Y006010D02*
X009936Y006010D01*
X009949Y006087D02*
X010360Y006087D01*
X010360Y006164D02*
X009949Y006164D01*
X009949Y006241D02*
X010360Y006241D01*
X010360Y006319D02*
X009949Y006319D01*
X009949Y006396D02*
X010716Y006396D01*
X010716Y006399D02*
X010360Y006399D01*
X010360Y006673D01*
X010370Y006709D01*
X010388Y006741D01*
X010414Y006767D01*
X010446Y006785D01*
X010465Y006790D01*
X010448Y006818D01*
X010439Y006853D01*
X010439Y007029D01*
X010756Y007029D01*
X010756Y006732D01*
X010716Y006732D01*
X010716Y006399D01*
X010716Y006473D02*
X010795Y006473D01*
X010795Y006550D02*
X010716Y006550D01*
X010716Y006628D02*
X010795Y006628D01*
X010795Y006705D02*
X010716Y006705D01*
X010756Y006782D02*
X010795Y006782D01*
X010756Y006859D02*
X010834Y006859D01*
X010834Y006937D02*
X010756Y006937D01*
X010756Y007014D02*
X010834Y007014D01*
X010756Y007091D02*
X009949Y007091D01*
X009949Y007014D02*
X010439Y007014D01*
X010439Y006937D02*
X009949Y006937D01*
X009949Y006859D02*
X010439Y006859D01*
X010441Y006782D02*
X009949Y006782D01*
X009949Y006705D02*
X010369Y006705D01*
X010360Y006628D02*
X002293Y006628D01*
X002293Y006705D02*
X008589Y006705D01*
X008589Y006693D02*
X008647Y006634D01*
X009045Y006634D01*
X009103Y006693D01*
X009103Y006772D01*
X009318Y006772D01*
X009318Y006693D01*
X009376Y006634D01*
X009891Y006634D01*
X009949Y006693D01*
X009949Y007169D01*
X009891Y007227D01*
X009376Y007227D01*
X009318Y007169D01*
X009318Y007089D01*
X009103Y007089D01*
X009103Y007090D01*
X009045Y007148D01*
X008647Y007148D01*
X008589Y007090D01*
X008589Y006693D01*
X008589Y006782D02*
X002293Y006782D01*
X002293Y006859D02*
X008589Y006859D01*
X008589Y006937D02*
X002293Y006937D01*
X002293Y007014D02*
X008589Y007014D01*
X008590Y007091D02*
X002293Y007091D01*
X002293Y007168D02*
X009318Y007168D01*
X009318Y007091D02*
X009102Y007091D01*
X009103Y006705D02*
X009318Y006705D01*
X009368Y006550D02*
X009109Y006550D01*
X009115Y006544D02*
X009089Y006570D01*
X009057Y006588D01*
X009022Y006598D01*
X008885Y006598D01*
X008885Y006340D01*
X008807Y006340D01*
X008807Y006598D01*
X008670Y006598D01*
X008635Y006588D01*
X008603Y006570D01*
X008577Y006544D01*
X008559Y006512D01*
X008549Y006477D01*
X008549Y006340D01*
X008807Y006340D01*
X008807Y006261D01*
X008885Y006261D01*
X008885Y006004D01*
X009022Y006004D01*
X009057Y006013D01*
X009089Y006032D01*
X009115Y006058D01*
X009133Y006090D01*
X009143Y006125D01*
X009143Y006261D01*
X008885Y006261D01*
X008885Y006340D01*
X009143Y006340D01*
X009143Y006477D01*
X009133Y006512D01*
X009115Y006544D01*
X009143Y006473D02*
X009318Y006473D01*
X009318Y006396D02*
X009143Y006396D01*
X009143Y006241D02*
X009318Y006241D01*
X009318Y006164D02*
X009143Y006164D01*
X009132Y006087D02*
X009318Y006087D01*
X009331Y006010D02*
X009043Y006010D01*
X008885Y006010D02*
X008807Y006010D01*
X008807Y006004D02*
X008670Y006004D01*
X008635Y006013D01*
X008603Y006032D01*
X008577Y006058D01*
X008559Y006090D01*
X008549Y006125D01*
X008549Y006261D01*
X008807Y006261D01*
X008807Y006004D01*
X008807Y006087D02*
X008885Y006087D01*
X008885Y006164D02*
X008807Y006164D01*
X008807Y006241D02*
X008885Y006241D01*
X008885Y006319D02*
X009318Y006319D01*
X008885Y006396D02*
X008807Y006396D01*
X008807Y006473D02*
X008885Y006473D01*
X008885Y006550D02*
X008807Y006550D01*
X008584Y006550D02*
X002293Y006550D01*
X002293Y006473D02*
X008549Y006473D01*
X008549Y006396D02*
X002293Y006396D01*
X002293Y006319D02*
X008807Y006319D01*
X008549Y006241D02*
X002293Y006241D01*
X002293Y006164D02*
X008549Y006164D01*
X008560Y006087D02*
X002293Y006087D01*
X002293Y006010D02*
X008649Y006010D01*
X009475Y005932D02*
X002293Y005932D01*
X002293Y005855D02*
X009475Y005855D01*
X009519Y005778D02*
X002293Y005778D01*
X002293Y005701D02*
X009596Y005701D01*
X009673Y005623D02*
X002293Y005623D01*
X002293Y005546D02*
X009751Y005546D01*
X010716Y005932D02*
X010795Y005932D01*
X010795Y006010D02*
X010716Y006010D01*
X010716Y006087D02*
X010795Y006087D01*
X010795Y006164D02*
X010716Y006164D01*
X010716Y006241D02*
X010795Y006241D01*
X010795Y006319D02*
X010716Y006319D01*
X010360Y006473D02*
X009949Y006473D01*
X009898Y006550D02*
X010360Y006550D01*
X011119Y006782D02*
X011197Y006782D01*
X011157Y006705D02*
X011142Y006705D01*
X011732Y006782D02*
X012841Y006782D01*
X012841Y006705D02*
X011850Y006705D01*
X011859Y006628D02*
X012841Y006628D01*
X012878Y006550D02*
X012507Y006550D01*
X012528Y006473D02*
X012881Y006473D01*
X012881Y006396D02*
X012528Y006396D01*
X012528Y006319D02*
X012881Y006319D01*
X012881Y006241D02*
X012528Y006241D01*
X012841Y006859D02*
X011780Y006859D01*
X011780Y006937D02*
X011899Y006937D01*
X011903Y007323D02*
X011764Y007323D01*
X011164Y007323D02*
X011139Y007323D01*
X011048Y007400D02*
X013844Y007400D01*
X013844Y007323D02*
X013705Y007323D01*
X013782Y007245D02*
X013844Y007245D01*
X013881Y007477D02*
X002293Y007477D01*
X002293Y007400D02*
X010542Y007400D01*
X010451Y007323D02*
X002293Y007323D01*
X002293Y007245D02*
X010439Y007245D01*
X010439Y007168D02*
X009949Y007168D01*
X010756Y007168D02*
X010834Y007168D01*
X010834Y007245D02*
X010756Y007245D01*
X010756Y007323D02*
X010834Y007323D01*
X010834Y007400D02*
X010756Y007400D01*
X012482Y007323D02*
X012926Y007323D01*
X012881Y007245D02*
X012528Y007245D01*
X012528Y007168D02*
X012881Y007168D01*
X012881Y007091D02*
X012528Y007091D01*
X012528Y007014D02*
X012881Y007014D01*
X012862Y006937D02*
X012487Y006937D01*
X014240Y007168D02*
X014319Y007168D01*
X014319Y007091D02*
X015039Y007091D01*
X015057Y007014D02*
X014714Y007014D01*
X014714Y006937D02*
X015091Y006937D01*
X015148Y006859D02*
X014714Y006859D01*
X014682Y006782D02*
X015242Y006782D01*
X015289Y006705D02*
X014646Y006705D01*
X014674Y006628D02*
X015184Y006628D01*
X015632Y006705D02*
X017762Y006705D01*
X017762Y006782D02*
X015678Y006782D01*
X015772Y006859D02*
X017762Y006859D01*
X017762Y006937D02*
X015829Y006937D01*
X015863Y007014D02*
X017762Y007014D01*
X017762Y007091D02*
X015881Y007091D01*
X015885Y007177D02*
X015885Y007181D01*
X015874Y007247D01*
X015854Y007310D01*
X015823Y007370D01*
X015784Y007424D01*
X015737Y007471D01*
X015683Y007510D01*
X015623Y007541D01*
X015560Y007561D01*
X015494Y007572D01*
X015490Y007572D01*
X015490Y007177D01*
X015885Y007177D01*
X015874Y007245D02*
X017762Y007245D01*
X017762Y007168D02*
X015490Y007168D01*
X015431Y007168D02*
X014714Y007168D01*
X014714Y007245D02*
X015046Y007245D01*
X015073Y007323D02*
X014714Y007323D01*
X014714Y007400D02*
X015119Y007400D01*
X015192Y007477D02*
X014678Y007477D01*
X014319Y007477D02*
X014240Y007477D01*
X014240Y007400D02*
X014319Y007400D01*
X014319Y007323D02*
X014240Y007323D01*
X014240Y007245D02*
X014319Y007245D01*
X015340Y007554D02*
X002293Y007554D01*
X002293Y007632D02*
X017762Y007632D01*
X017762Y007709D02*
X002293Y007709D01*
X002293Y007786D02*
X017762Y007786D01*
X017762Y007863D02*
X002293Y007863D01*
X003971Y004310D02*
X011916Y004310D01*
X011916Y004233D02*
X004031Y004233D01*
X004037Y004156D02*
X011916Y004156D01*
X011916Y004079D02*
X004037Y004079D01*
X004037Y004001D02*
X011969Y004001D01*
X012192Y003847D02*
X004037Y003847D01*
X004037Y003770D02*
X006148Y003770D01*
X006077Y003692D02*
X004037Y003692D01*
X003137Y003692D02*
X003059Y003692D01*
X003059Y003770D02*
X003137Y003770D01*
X003137Y003847D02*
X003059Y003847D01*
X003059Y002070D02*
X003137Y002070D01*
X003137Y001993D02*
X003059Y001993D01*
X003137Y001916D02*
X004081Y001916D01*
X004081Y001839D02*
X004037Y001839D01*
X004037Y001761D02*
X004090Y001761D01*
X004037Y001684D02*
X004164Y001684D01*
X004037Y001607D02*
X016017Y001607D01*
X016017Y001573D02*
X016026Y001538D01*
X016045Y001506D01*
X016071Y001480D01*
X016103Y001461D01*
X016138Y001452D01*
X016917Y001452D01*
X016917Y001852D01*
X016017Y001852D01*
X016017Y001573D01*
X016031Y001530D02*
X004023Y001530D01*
X003918Y001452D02*
X016136Y001452D01*
X016017Y001684D02*
X010234Y001684D01*
X010231Y001681D02*
X010257Y001707D01*
X010275Y001739D01*
X010285Y001775D01*
X010285Y001970D01*
X009988Y001970D01*
X009988Y001654D01*
X010164Y001654D01*
X010199Y001663D01*
X010231Y001681D01*
X010281Y001761D02*
X016017Y001761D01*
X016017Y001839D02*
X010285Y001839D01*
X010285Y001916D02*
X016917Y001916D01*
X016917Y001993D02*
X016996Y001993D01*
X016996Y002070D02*
X016917Y002070D01*
X016917Y001839D02*
X016996Y001839D01*
X016996Y001761D02*
X016917Y001761D01*
X016917Y001684D02*
X016996Y001684D01*
X016996Y001607D02*
X016917Y001607D01*
X016917Y001530D02*
X016996Y001530D01*
X016996Y001452D02*
X016917Y001452D01*
X017762Y001375D02*
X002293Y001375D01*
X002293Y001298D02*
X017762Y001298D01*
X017762Y001221D02*
X002293Y001221D01*
X002293Y001143D02*
X017762Y001143D01*
X017762Y001066D02*
X002293Y001066D01*
X002293Y000989D02*
X017762Y000989D01*
X017762Y000912D02*
X002293Y000912D01*
X002293Y000835D02*
X017762Y000835D01*
X017762Y000757D02*
X002293Y000757D01*
X002293Y000680D02*
X017762Y000680D01*
X017762Y000603D02*
X002293Y000603D01*
X002293Y000526D02*
X017762Y000526D01*
X017762Y000448D02*
X002293Y000448D01*
X002293Y000371D02*
X017762Y000371D01*
X017762Y000294D02*
X002293Y000294D01*
X003059Y001452D02*
X003137Y001452D01*
X003137Y001530D02*
X003059Y001530D01*
X003059Y001607D02*
X003137Y001607D01*
X003137Y001684D02*
X003059Y001684D01*
X003059Y001761D02*
X003137Y001761D01*
X003137Y001839D02*
X003059Y001839D01*
X004037Y001993D02*
X004397Y001993D01*
X004397Y001916D02*
X004476Y001916D01*
X004476Y001993D02*
X009909Y001993D01*
X009909Y001970D02*
X009612Y001970D01*
X009612Y001775D01*
X009622Y001739D01*
X009640Y001707D01*
X009666Y001681D01*
X009698Y001663D01*
X009733Y001654D01*
X009909Y001654D01*
X009909Y001970D01*
X009909Y001916D02*
X009988Y001916D01*
X009988Y001993D02*
X016017Y001993D01*
X016017Y002070D02*
X010285Y002070D01*
X009988Y001839D02*
X009909Y001839D01*
X009909Y001761D02*
X009988Y001761D01*
X009988Y001684D02*
X009909Y001684D01*
X009663Y001684D02*
X004709Y001684D01*
X004784Y001761D02*
X009616Y001761D01*
X009612Y001839D02*
X004793Y001839D01*
X004793Y001916D02*
X009612Y001916D01*
X009612Y002070D02*
X007821Y002070D01*
X007507Y002070D02*
X007429Y002070D01*
X007115Y002070D02*
X006797Y002070D01*
X006820Y002148D02*
X007093Y002148D01*
X007093Y002225D02*
X006820Y002225D01*
X006820Y002302D02*
X007093Y002302D01*
X007350Y002379D02*
X006563Y002379D01*
X006820Y002457D02*
X007093Y002457D01*
X007093Y002534D02*
X006820Y002534D01*
X006801Y002611D02*
X007111Y002611D01*
X007180Y002688D02*
X006732Y002688D01*
X006780Y002766D02*
X007133Y002766D01*
X007133Y002843D02*
X006780Y002843D01*
X006780Y002920D02*
X007133Y002920D01*
X007133Y002997D02*
X006780Y002997D01*
X006760Y003075D02*
X007152Y003075D01*
X007133Y003152D02*
X007016Y003152D01*
X007056Y003229D02*
X007093Y003229D01*
X007093Y003306D02*
X007056Y003306D01*
X007056Y003383D02*
X007093Y003383D01*
X007056Y003486D02*
X007056Y003662D01*
X007047Y003697D01*
X007028Y003729D01*
X007003Y003755D01*
X006971Y003773D01*
X006935Y003783D01*
X006602Y003783D01*
X006602Y003486D01*
X007056Y003486D01*
X007056Y003538D02*
X007093Y003538D01*
X007093Y003615D02*
X007056Y003615D01*
X007048Y003692D02*
X007101Y003692D01*
X007172Y003770D02*
X006977Y003770D01*
X006602Y003770D02*
X006523Y003770D01*
X006523Y003692D02*
X006602Y003692D01*
X006602Y003615D02*
X006563Y003615D01*
X006563Y003538D02*
X006602Y003538D01*
X006602Y003461D02*
X007350Y003461D01*
X007429Y003692D02*
X007507Y003692D01*
X007507Y003770D02*
X007429Y003770D01*
X007764Y003770D02*
X012192Y003770D01*
X012192Y003692D02*
X007835Y003692D01*
X006484Y002070D02*
X006405Y002070D01*
X006092Y002070D02*
X004793Y002070D01*
X004476Y001839D02*
X004397Y001839D01*
X004397Y001761D02*
X004476Y001761D01*
X004476Y001684D02*
X004397Y001684D01*
X004081Y002070D02*
X004037Y002070D01*
X013929Y005778D02*
X017762Y005778D01*
X017762Y005855D02*
X014006Y005855D01*
X014026Y005932D02*
X017762Y005932D01*
X017762Y006010D02*
X015619Y006010D01*
X015731Y006087D02*
X017762Y006087D01*
X017762Y006164D02*
X015795Y006164D01*
X015827Y006241D02*
X017762Y006241D01*
X017762Y006319D02*
X015845Y006319D01*
X015845Y006396D02*
X017762Y006396D01*
X017762Y006473D02*
X015829Y006473D01*
X015797Y006550D02*
X017762Y006550D01*
X017762Y006628D02*
X015736Y006628D01*
X015490Y007245D02*
X015431Y007245D01*
X015431Y007323D02*
X015490Y007323D01*
X015490Y007400D02*
X015431Y007400D01*
X015431Y007477D02*
X015490Y007477D01*
X015490Y007554D02*
X015431Y007554D01*
X015580Y007554D02*
X017762Y007554D01*
X017762Y007477D02*
X015728Y007477D01*
X015801Y007400D02*
X017762Y007400D01*
X017762Y007323D02*
X015847Y007323D01*
X015190Y006087D02*
X014674Y006087D01*
X015301Y006010D02*
X014026Y006010D01*
X014440Y004619D02*
X015255Y004619D01*
X015207Y004542D02*
X015205Y004542D01*
X015519Y004542D02*
X015598Y004542D01*
X015598Y004465D02*
X015519Y004465D01*
X015519Y004388D02*
X015598Y004388D01*
X015915Y004388D02*
X017762Y004388D01*
X017762Y004465D02*
X015915Y004465D01*
X015911Y004542D02*
X017762Y004542D01*
X017762Y004619D02*
X015862Y004619D01*
X015598Y004619D02*
X015519Y004619D01*
X015208Y004079D02*
X015205Y004079D01*
X016917Y004079D02*
X016996Y004079D01*
X016996Y004156D02*
X016917Y004156D01*
X016917Y004233D02*
X016996Y004233D01*
X016996Y004310D02*
X016917Y004310D01*
X016917Y004001D02*
X016996Y004001D01*
X016996Y003847D02*
X016917Y003847D01*
X016917Y003770D02*
X016996Y003770D01*
X016996Y003692D02*
X016917Y003692D01*
D26*
X016956Y003840D03*
X016326Y003840D03*
X015696Y003840D03*
X015067Y003840D03*
X014437Y003840D03*
X013807Y003840D03*
X013177Y003840D03*
X012941Y003525D03*
X012704Y003840D03*
X011996Y003840D03*
X011444Y003840D03*
X010815Y003840D03*
X010263Y003840D03*
X009712Y003840D03*
X009161Y003840D03*
X008610Y003840D03*
X008059Y003840D03*
X007507Y003919D03*
X006956Y003919D03*
X006405Y003919D03*
X005854Y003840D03*
X005303Y003840D03*
X004752Y003840D03*
X004200Y003840D03*
X003649Y003840D03*
X003098Y003840D03*
X002468Y003840D03*
X002468Y005179D03*
X004043Y005179D03*
X005696Y005179D03*
X007507Y005179D03*
X009240Y005179D03*
X010185Y005966D03*
X010185Y006517D03*
X010342Y007226D03*
X011523Y007620D03*
X012704Y007226D03*
X012704Y006754D03*
X011996Y006754D03*
X012704Y006281D03*
X013807Y005966D03*
X013019Y005179D03*
X014279Y004470D03*
X015303Y005179D03*
X017507Y005179D03*
X017507Y006439D03*
X017507Y007620D03*
X014909Y007620D03*
X014279Y007620D03*
X013728Y007620D03*
X011051Y005179D03*
X008374Y006596D03*
X008689Y007620D03*
X005933Y007620D03*
X002547Y007620D03*
X002547Y006439D03*
X006956Y002895D03*
X005854Y001950D03*
X005303Y001950D03*
X004752Y001950D03*
X004200Y001950D03*
X003649Y001950D03*
X003098Y001950D03*
X002468Y001950D03*
X002468Y000612D03*
X004043Y000612D03*
X005696Y000612D03*
X007507Y000612D03*
X009240Y000612D03*
X011051Y000612D03*
X013019Y000612D03*
X015303Y000612D03*
X015067Y001950D03*
X014437Y001950D03*
X013807Y001950D03*
X013177Y001950D03*
X012704Y001950D03*
X011996Y001950D03*
X011444Y001950D03*
X010815Y001950D03*
X010263Y001950D03*
X009712Y001950D03*
X009161Y001950D03*
X008610Y001950D03*
X008059Y001950D03*
X007507Y001872D03*
X006956Y001872D03*
X006405Y001872D03*
X012941Y002580D03*
X012941Y003053D03*
X015696Y001950D03*
X016326Y001950D03*
X016956Y001950D03*
X017507Y001950D03*
X017507Y000612D03*
X017507Y003840D03*
D27*
X013531Y004273D02*
X013531Y003112D01*
X012350Y003112D02*
X012350Y004175D01*
X012212Y004313D01*
X013492Y004313D02*
X013531Y004273D01*
X011523Y006124D02*
X011051Y005651D01*
X009870Y005651D01*
X009633Y005887D01*
X009633Y006261D01*
X008885Y006931D02*
X008846Y006891D01*
X008885Y006931D02*
X009633Y006931D01*
X003649Y003840D02*
X003098Y003840D01*
X002468Y003840D01*
X002468Y001950D02*
X003098Y001950D01*
X003649Y001950D01*
D28*
X011444Y002895D02*
X011464Y002915D01*
X012350Y002915D01*
X013531Y002915D02*
X014397Y002915D01*
X014417Y002895D01*
X016326Y001950D02*
X016956Y001950D01*
X017507Y001950D01*
X017507Y003840D02*
X016956Y003840D01*
X016326Y003840D01*
D29*
X016952Y002895D02*
X015086Y002895D01*
X016952Y002895D02*
X016956Y002891D01*
X010657Y002895D02*
X010027Y002895D01*
X009948Y002817D01*
X009948Y002679D01*
X010027Y002895D02*
X008866Y002895D01*
X005047Y002895D02*
X005043Y002891D01*
X004437Y002891D01*
X004437Y002679D01*
X004437Y002891D02*
X003098Y002891D01*
D30*
X005716Y002895D02*
X006444Y002895D01*
X007468Y002895D02*
X008196Y002895D01*
X012881Y004313D02*
X013492Y004313D01*
X014279Y004313D02*
X014889Y004313D01*
X014279Y004313D02*
X014279Y004470D01*
X013807Y005966D02*
X011681Y005966D01*
X011523Y006124D01*
X011523Y006340D01*
X011504Y006360D01*
X011523Y006380D01*
X012193Y006380D01*
X013216Y006380D02*
X013728Y006380D01*
X014279Y006380D01*
X014299Y006360D01*
X015460Y006360D01*
X013728Y006380D02*
X013728Y006990D01*
X013590Y007128D01*
X013216Y007128D01*
D31*
X012193Y007128D02*
X011523Y007128D01*
X011464Y007069D01*
M02*
