G75*
%MOIN*%
%OFA0B0*%
%FSLAX24Y24*%
%IPPOS*%
%LPD*%
%AMOC8*
5,1,8,0,0,1.08239X$1,22.5*
%
%ADD10C,0.0000*%
%ADD11R,0.0709X0.0394*%
%ADD12R,0.0472X0.0236*%
%ADD13R,0.0472X0.0394*%
%ADD14R,0.0433X0.0394*%
%ADD15R,0.0394X0.0433*%
%ADD16R,0.0394X0.0394*%
%ADD17R,0.0472X0.0217*%
%ADD18R,0.0512X0.0591*%
%ADD19R,0.0591X0.0512*%
%ADD20C,0.0148*%
%ADD21C,0.0059*%
%ADD22R,0.0315X0.0315*%
D10*
X002153Y000139D02*
X002153Y008013D01*
X017901Y008013D01*
X017901Y000139D01*
X002153Y000139D01*
D11*
X006563Y003446D03*
D12*
X006444Y002895D03*
X007468Y002895D03*
D13*
X007468Y002344D03*
X006444Y002344D03*
X007468Y003446D03*
D14*
X008196Y002895D03*
X008866Y002895D03*
X005716Y002895D03*
X005047Y002895D03*
X004437Y002679D03*
X004437Y002009D03*
X009633Y006261D03*
X009633Y006931D03*
X010795Y007069D03*
X011464Y007069D03*
X014889Y004313D03*
X015559Y004313D03*
X015086Y002895D03*
X014417Y002895D03*
D15*
X012881Y004313D03*
X012212Y004313D03*
X009948Y002679D03*
X009948Y002009D03*
D16*
X010657Y002895D03*
X011444Y002895D03*
X013492Y004313D03*
X014279Y004313D03*
D17*
X013216Y006380D03*
X013216Y006754D03*
X013216Y007128D03*
X012193Y007128D03*
X012193Y006380D03*
D18*
X011504Y006360D03*
X010756Y006360D03*
D19*
X014279Y006380D03*
X014279Y007128D03*
D20*
X012720Y003107D02*
X012720Y002527D01*
X012720Y003107D02*
X013162Y003107D01*
X013162Y002527D01*
X012720Y002527D01*
X012720Y002674D02*
X013162Y002674D01*
X013162Y002821D02*
X012720Y002821D01*
X012720Y002968D02*
X013162Y002968D01*
D21*
X013363Y002945D02*
X013363Y002885D01*
X013363Y002945D02*
X013699Y002945D01*
X013699Y002885D01*
X013363Y002885D01*
X013363Y002943D02*
X013699Y002943D01*
X013363Y003082D02*
X013363Y003142D01*
X013699Y003142D01*
X013699Y003082D01*
X013363Y003082D01*
X013363Y003140D02*
X013699Y003140D01*
X013363Y002748D02*
X013363Y002688D01*
X013363Y002748D02*
X013699Y002748D01*
X013699Y002688D01*
X013363Y002688D01*
X013363Y002746D02*
X013699Y002746D01*
X013363Y002551D02*
X013363Y002491D01*
X013363Y002551D02*
X013699Y002551D01*
X013699Y002491D01*
X013363Y002491D01*
X013363Y002549D02*
X013699Y002549D01*
X012182Y002551D02*
X012182Y002491D01*
X012182Y002551D02*
X012518Y002551D01*
X012518Y002491D01*
X012182Y002491D01*
X012182Y002549D02*
X012518Y002549D01*
X012182Y002688D02*
X012182Y002748D01*
X012518Y002748D01*
X012518Y002688D01*
X012182Y002688D01*
X012182Y002746D02*
X012518Y002746D01*
X012182Y002885D02*
X012182Y002945D01*
X012518Y002945D01*
X012518Y002885D01*
X012182Y002885D01*
X012182Y002943D02*
X012518Y002943D01*
X012182Y003082D02*
X012182Y003142D01*
X012518Y003142D01*
X012518Y003082D01*
X012182Y003082D01*
X012182Y003140D02*
X012518Y003140D01*
D22*
X008846Y006301D03*
X008846Y006891D03*
M02*
