%
M48
M72
T01C0.0118
T02C0.0276
%
T01
X2468Y612
X4043Y612
X5696Y612
X7507Y612
X9240Y612
X11051Y612
X13019Y612
X15303Y612
X15067Y1950
X14437Y1950
X13807Y1950
X13177Y1950
X12704Y1950
X11996Y1950
X11444Y1950
X10815Y1950
X10263Y1950
X9712Y1950
X9161Y1950
X8610Y1950
X8059Y1950
X7507Y1872
X6956Y1872
X6405Y1872
X5854Y1950
X5303Y1950
X4752Y1950
X4200Y1950
X3649Y1950
X3098Y1950
X2468Y1950
X2468Y3840
X3098Y3840
X3649Y3840
X4200Y3840
X4752Y3840
X5303Y3840
X5854Y3840
X6405Y3919
X6956Y3919
X7507Y3919
X8059Y3840
X8610Y3840
X9161Y3840
X9712Y3840
X10263Y3840
X10815Y3840
X11444Y3840
X11996Y3840
X12704Y3840
X12941Y3525
X13177Y3840
X13807Y3840
X14437Y3840
X15067Y3840
X15696Y3840
X16326Y3840
X16956Y3840
X17507Y3840
X17507Y5179
X17507Y6439
X17507Y7620
X14909Y7620
X14279Y7620
X13728Y7620
X12704Y7226
X12704Y6754
X11996Y6754
X12704Y6281
X13807Y5966
X13019Y5179
X14279Y4470
X15303Y5179
X12941Y3053
X12941Y2580
X15696Y1950
X16326Y1950
X16956Y1950
X17507Y1950
X17507Y612
X11051Y5179
X10185Y5966
X10185Y6517
X10342Y7226
X11523Y7620
X8689Y7620
X8374Y6596
X9240Y5179
X7507Y5179
X5696Y5179
X4043Y5179
X2468Y5179
X2547Y6439
X2547Y7620
X5933Y7620
X6956Y2895
T02
X15460Y6360
X15460Y7147
M30
