G75*
%MOIN*%
%OFA0B0*%
%FSLAX24Y24*%
%IPPOS*%
%LPD*%
%AMOC8*
5,1,8,0,0,1.08239X$1,22.5*
%
%ADD10C,0.0000*%
%ADD11C,0.0060*%
D10*
X005775Y000139D02*
X005775Y008013D01*
X021523Y008013D01*
X021523Y000139D01*
X005775Y000139D01*
D11*
X007412Y002654D02*
X007412Y002995D01*
X007242Y002995D01*
X007185Y002938D01*
X007185Y002825D01*
X007242Y002768D01*
X007412Y002768D01*
X007554Y002768D02*
X007554Y002938D01*
X007610Y002995D01*
X007781Y002995D01*
X007781Y002768D01*
X007913Y002768D02*
X008026Y002768D01*
X007969Y002768D02*
X007969Y002995D01*
X008026Y002995D01*
X007969Y003108D02*
X007969Y003165D01*
X008536Y003108D02*
X008763Y003108D01*
X008763Y002768D01*
X008904Y002768D02*
X009018Y002881D01*
X008961Y002881D02*
X009131Y002881D01*
X009131Y002768D02*
X009131Y003108D01*
X008961Y003108D01*
X008904Y003051D01*
X008904Y002938D01*
X008961Y002881D01*
X008763Y002938D02*
X008649Y002938D01*
X007044Y002995D02*
X007044Y002825D01*
X006987Y002768D01*
X006817Y002768D01*
X006817Y002995D01*
X006676Y002995D02*
X006562Y002995D01*
X006619Y003051D02*
X006619Y002825D01*
X006562Y002768D01*
X017847Y002768D02*
X017904Y002825D01*
X017904Y003051D01*
X017961Y002995D02*
X017847Y002995D01*
X018102Y002995D02*
X018102Y002768D01*
X018272Y002768D01*
X018329Y002825D01*
X018329Y002995D01*
X018471Y002938D02*
X018471Y002825D01*
X018527Y002768D01*
X018697Y002768D01*
X018697Y002654D02*
X018697Y002995D01*
X018527Y002995D01*
X018471Y002938D01*
X018830Y002995D02*
X018943Y002995D01*
X018886Y003051D02*
X018886Y002825D01*
X018830Y002768D01*
X019084Y002768D02*
X019084Y002995D01*
X019311Y002995D02*
X019311Y002825D01*
X019255Y002768D01*
X019084Y002768D01*
X019453Y002825D02*
X019453Y002938D01*
X019509Y002995D01*
X019623Y002995D01*
X019680Y002938D01*
X019680Y002825D01*
X019623Y002768D01*
X019509Y002768D01*
X019453Y002825D01*
X020189Y003108D02*
X020416Y003108D01*
X020416Y002768D01*
X020558Y002768D02*
X020671Y002881D01*
X020614Y002881D02*
X020785Y002881D01*
X020785Y002768D02*
X020785Y003108D01*
X020614Y003108D01*
X020558Y003051D01*
X020558Y002938D01*
X020614Y002881D01*
X020416Y002938D02*
X020303Y002938D01*
X021257Y006198D02*
X021257Y006538D01*
X021087Y006538D01*
X021030Y006481D01*
X021030Y006368D01*
X021087Y006311D01*
X021257Y006311D01*
X020889Y006368D02*
X020889Y006481D01*
X020832Y006538D01*
X020719Y006538D01*
X020662Y006481D01*
X020662Y006368D01*
X020719Y006311D01*
X020832Y006311D01*
X020889Y006368D01*
X020520Y006368D02*
X020520Y006538D01*
X020294Y006538D02*
X020294Y006368D01*
X020350Y006311D01*
X020407Y006368D01*
X020464Y006311D01*
X020520Y006368D01*
X020152Y006368D02*
X020152Y006481D01*
X020095Y006538D01*
X019982Y006538D01*
X019925Y006481D01*
X019925Y006425D01*
X020152Y006425D01*
X020152Y006368D02*
X020095Y006311D01*
X019982Y006311D01*
X019784Y006311D02*
X019784Y006538D01*
X019784Y006425D02*
X019670Y006538D01*
X019614Y006538D01*
X020662Y007025D02*
X020662Y007251D01*
X020889Y007251D02*
X020889Y007025D01*
X020775Y006911D01*
X020662Y007025D01*
X021030Y007081D02*
X021030Y006968D01*
X021087Y006911D01*
X021200Y006911D01*
X021257Y006968D01*
X021257Y007081D02*
X021144Y007138D01*
X021087Y007138D01*
X021030Y007081D01*
X021257Y007081D02*
X021257Y007251D01*
X021030Y007251D01*
M02*
