G75*
%MOIN*%
%OFA0B0*%
%FSLAX24Y24*%
%IPPOS*%
%LPD*%
%AMOC8*
5,1,8,0,0,1.08239X$1,22.5*
%
%ADD10C,0.0000*%
%ADD11R,0.1650X0.0700*%
%ADD12R,0.1650X0.1050*%
%ADD13R,0.0709X0.0394*%
%ADD14R,0.0472X0.0236*%
%ADD15R,0.0472X0.0394*%
%ADD16R,0.0433X0.0394*%
%ADD17R,0.0394X0.0433*%
%ADD18R,0.0394X0.0394*%
%ADD19R,0.0472X0.0217*%
%ADD20R,0.0512X0.0591*%
%ADD21R,0.0591X0.0512*%
%ADD22C,0.0148*%
%ADD23C,0.0059*%
%ADD24R,0.0315X0.0315*%
D10*
X005775Y000139D02*
X005775Y008013D01*
X021523Y008013D01*
X021523Y000139D01*
X005775Y000139D01*
X005775Y000695D02*
X005775Y005095D01*
X021523Y005095D02*
X021523Y000695D01*
D11*
X020690Y002895D03*
X006608Y002895D03*
D12*
X006608Y001519D03*
X006608Y004271D03*
X020690Y004271D03*
X020690Y001519D03*
D13*
X010185Y003446D03*
D14*
X010067Y002895D03*
X011090Y002895D03*
D15*
X011090Y002344D03*
X010067Y002344D03*
X011090Y003446D03*
D16*
X008137Y002679D03*
X008137Y002009D03*
X013256Y006261D03*
X013256Y006931D03*
X014417Y007069D03*
X015086Y007069D03*
X018511Y004313D03*
X019181Y004313D03*
D17*
X016504Y004313D03*
X015834Y004313D03*
X012547Y002679D03*
X012547Y002009D03*
D18*
X013334Y002895D03*
X014122Y002895D03*
X017114Y004313D03*
X017901Y004313D03*
D19*
X016838Y006380D03*
X016838Y006754D03*
X016838Y007128D03*
X015815Y007128D03*
X015815Y006380D03*
D20*
X015126Y006360D03*
X014378Y006360D03*
D21*
X017901Y006380D03*
X017901Y007128D03*
D22*
X016342Y003107D02*
X016342Y002527D01*
X016342Y003107D02*
X016784Y003107D01*
X016784Y002527D01*
X016342Y002527D01*
X016342Y002674D02*
X016784Y002674D01*
X016784Y002821D02*
X016342Y002821D01*
X016342Y002968D02*
X016784Y002968D01*
D23*
X016985Y002945D02*
X016985Y002885D01*
X016985Y002945D02*
X017321Y002945D01*
X017321Y002885D01*
X016985Y002885D01*
X016985Y002943D02*
X017321Y002943D01*
X016985Y003082D02*
X016985Y003142D01*
X017321Y003142D01*
X017321Y003082D01*
X016985Y003082D01*
X016985Y003140D02*
X017321Y003140D01*
X016985Y002748D02*
X016985Y002688D01*
X016985Y002748D02*
X017321Y002748D01*
X017321Y002688D01*
X016985Y002688D01*
X016985Y002746D02*
X017321Y002746D01*
X016985Y002551D02*
X016985Y002491D01*
X016985Y002551D02*
X017321Y002551D01*
X017321Y002491D01*
X016985Y002491D01*
X016985Y002549D02*
X017321Y002549D01*
X015804Y002551D02*
X015804Y002491D01*
X015804Y002551D02*
X016140Y002551D01*
X016140Y002491D01*
X015804Y002491D01*
X015804Y002549D02*
X016140Y002549D01*
X015804Y002688D02*
X015804Y002748D01*
X016140Y002748D01*
X016140Y002688D01*
X015804Y002688D01*
X015804Y002746D02*
X016140Y002746D01*
X015804Y002885D02*
X015804Y002945D01*
X016140Y002945D01*
X016140Y002885D01*
X015804Y002885D01*
X015804Y002943D02*
X016140Y002943D01*
X015804Y003082D02*
X015804Y003142D01*
X016140Y003142D01*
X016140Y003082D01*
X015804Y003082D01*
X015804Y003140D02*
X016140Y003140D01*
D24*
X012468Y006301D03*
X012468Y006891D03*
M02*
